<?xml version="1.0" standalone="no"?>
<!DOCTYPE svg PUBLIC "-//W3C//DTD SVG 20010904//EN"
 "http://www.w3.org/TR/2001/REC-SVG-20010904/DTD/svg10.dtd">
<svg version="1.0" xmlns="http://www.w3.org/2000/svg"
 width="1512.000000pt" height="1512.000000pt" viewBox="0 0 1512.000000 1512.000000"
 preserveAspectRatio="xMidYMid meet">

<g transform="translate(0.000000,1512.000000) scale(0.100000,-0.100000)"
fill="#000000" stroke="none">
<path d="M7845 11592 c-7 -5 -11 -255 -12 -772 -1 -421 -4 -817 -7 -880 -16
-365 -18 -390 -33 -401 -8 -8 -17 -9 -23 -3 -6 6 -10 201 -10 477 -1 256 -5
469 -10 472 -5 3 -11 1 -15 -5 -3 -5 -8 -123 -11 -262 -2 -151 -8 -256 -14
-262 -7 -7 -16 -7 -28 0 -15 10 -17 32 -17 187 0 164 -1 177 -20 191 -18 14
-18 15 -2 16 16 0 17 23 17 345 0 332 -1 345 -19 345 -11 0 -21 -9 -25 -24 -3
-13 -6 -299 -6 -637 -1 -813 -1 -813 -22 -817 -12 -2 -19 6 -23 32 -4 20 -5
447 -2 951 3 503 2 917 -3 920 -5 3 -15 2 -24 -1 -14 -6 -16 -92 -16 -898 0
-491 -3 -896 -7 -900 -4 -4 -7 -19 -8 -34 0 -22 -5 -27 -25 -27 l-25 0 0 328
0 328 -22 5 c-12 3 -26 3 -31 0 -5 -3 -7 -80 -4 -178 l4 -173 -31 -12 -31 -11
0 121 c-2 319 -5 400 -17 405 -10 3 -13 -31 -15 -145 0 -81 0 -155 1 -163 1
-8 -1 -79 -5 -158 l-6 -143 -27 3 -26 3 -3 453 c-2 393 -4 452 -17 452 -17 0
-20 -87 -17 -485 1 -121 -1 -265 -5 -320 -8 -98 -9 -100 -33 -100 l-25 0 -3
378 c-2 369 -3 377 -22 377 -11 0 -21 -3 -21 -7 -1 -5 -3 -170 -4 -368 -2
-198 -3 -368 -4 -377 -1 -22 -37 -24 -45 -2 -3 9 -6 99 -6 201 0 170 -1 184
-17 181 -16 -3 -18 -18 -21 -121 l-3 -117 -28 0 -28 0 -6 83 c-3 45 -5 387 -4
760 1 372 -1 678 -5 679 -5 0 -14 1 -20 2 -10 1 -12 -122 -9 -594 2 -327 0
-651 -4 -719 -7 -110 -10 -124 -27 -129 -16 -4 -18 -10 -12 -31 10 -38 12
-271 2 -277 -4 -3 -3 -14 2 -24 12 -23 11 -130 -1 -130 -23 0 -29 53 -30 252
-1 117 -3 456 -4 753 l-2 540 -24 0 -24 0 4 -467 3 -466 -22 -12 c-16 -9 -25
-8 -37 2 -14 11 -15 38 -9 220 6 204 6 207 -15 213 -11 4 -24 4 -27 0 -4 -4
-7 -149 -8 -323 -1 -469 0 -444 -26 -440 -23 3 -23 4 -26 203 -2 200 -5 214
-39 215 -10 0 -13 -58 -13 -255 0 -197 -3 -255 -12 -255 -10 0 -12 -36 -10
-155 l4 -155 -26 0 -26 0 0 645 0 645 -25 0 -25 0 0 -545 c0 -567 0 -561 -40
-535 -13 8 -15 86 -18 587 -2 529 -4 578 -19 578 -15 0 -16 -48 -17 -571 -1
-529 -2 -572 -19 -588 -9 -10 -25 -16 -35 -14 -16 3 -17 33 -22 407 -4 311 -8
405 -17 409 -10 3 -13 -84 -14 -410 -1 -626 -11 -773 -49 -732 -7 9 -20 506
-20 822 0 137 -2 164 -15 169 -9 3 -19 2 -23 -2 -4 -3 -8 -142 -9 -307 -2
-314 -5 -338 -44 -317 -16 8 -19 21 -19 82 0 40 -3 136 -7 214 -5 126 -8 140
-22 131 -13 -8 -16 -29 -16 -104 -1 -74 -4 -98 -17 -111 -16 -15 -16 -17 0
-29 14 -10 15 -19 6 -63 -6 -30 -7 -54 -2 -57 5 -3 6 -38 2 -77 -4 -40 -6 -86
-5 -104 2 -38 -17 -54 -32 -27 -12 21 -12 21 -15 901 -2 622 -2 622 -23 634
-15 7 -24 8 -32 0 -7 -7 -9 -258 -8 -798 1 -433 -1 -796 -4 -805 -4 -10 -13
-18 -19 -18 -32 0 -36 50 -36 455 0 398 0 405 -20 405 -20 0 -20 -7 -21 -327
-1 -181 -4 -339 -8 -353 -4 -15 -15 -26 -29 -28 l-22 -3 -1 368 c0 202 0 392
1 421 1 51 1 52 -27 52 l-28 0 3 -262 c2 -145 1 -341 -3 -435 -7 -170 -7 -173
-30 -173 -21 0 -22 5 -28 107 -4 58 -7 254 -7 435 l0 329 -22 -3 c-23 -3 -23
-3 -24 -213 -1 -115 -4 -334 -7 -485 -3 -151 -6 -301 -6 -332 -1 -55 -2 -58
-26 -58 l-25 0 0 340 0 340 -25 0 -25 0 0 -345 c0 -322 -1 -345 -17 -345 -42
1 -43 7 -50 281 -4 145 -7 512 -7 814 -1 542 -1 550 -21 553 -20 3 -20 -4 -22
-548 l-2 -551 -23 -19 c-13 -11 -25 -19 -28 -20 -3 0 -4 56 -2 125 3 120 2
125 -17 125 -20 0 -21 -5 -21 -172 0 -145 -3 -174 -17 -190 -9 -11 -11 -18 -5
-18 7 0 12 -15 12 -35 0 -32 -2 -34 -30 -32 -33 2 -35 11 -31 132 3 72 -18
101 -66 91 l-28 -7 0 238 c0 218 -1 238 -17 241 -17 3 -18 -19 -20 -325 l-3
-328 -25 0 -25 0 -5 302 c-3 197 -9 306 -16 313 -6 6 -18 8 -27 4 -15 -6 -17
-41 -17 -394 0 -388 -3 -421 -33 -391 -17 17 -22 227 -6 247 9 11 9 18 1 26
-8 8 -12 56 -12 140 0 121 -1 128 -20 128 -19 0 -20 -7 -20 -211 0 -193 -1
-210 -17 -207 -10 2 -20 17 -24 38 -10 45 -5 705 6 788 8 69 -2 92 -40 92 -41
0 -49 -23 -36 -100 7 -46 11 -226 11 -525 -1 -448 -1 -455 -21 -466 -12 -6
-22 -9 -24 -7 -2 2 -5 190 -7 418 -3 356 -6 415 -18 415 -18 0 -18 -4 -20
-532 l-1 -363 -25 -6 c-14 -4 -28 -3 -32 0 -13 14 -1 150 16 169 15 17 14 18
-4 23 -18 5 -20 14 -19 147 0 122 -2 142 -16 145 -14 3 -17 -16 -21 -140 -6
-161 -11 -180 -42 -176 -20 3 -21 8 -18 78 5 106 -3 142 -31 138 -21 -3 -22
-8 -25 -111 l-3 -108 -142 3 -142 3 4 88 c4 95 -5 117 -45 117 -26 0 -44 -26
-44 -65 0 -22 -4 -26 -22 -23 -23 3 -23 6 -23 133 0 131 0 132 -35 127 -6 -1
-10 -53 -9 -137 l1 -135 28 0 c27 0 28 -1 26 -52 l-1 -53 -252 -3 c-245 -2
-253 -3 -253 -22 0 -19 7 -20 256 -20 l255 0 -3 -51 -3 -51 -152 1 c-148 2
-169 -2 -158 -31 4 -10 38 -13 158 -13 l152 0 3 -42 3 -43 -246 0 -246 0 3
-22 3 -23 243 -3 242 -2 0 -33 c0 -42 9 -54 45 -63 43 -10 47 -14 34 -30 -9
-11 -15 -11 -25 -3 -11 9 -17 9 -28 0 -14 -12 -27 -2 -39 32 -5 14 -20 17 -96
17 -72 0 -90 -3 -95 -16 -10 -27 4 -37 45 -30 35 6 39 4 39 -15 0 -11 -5 -29
-10 -40 -10 -18 -25 -19 -381 -19 -324 0 -370 -2 -376 -15 -3 -9 -3 -18 -1
-21 4 -3 381 -11 726 -14 38 0 52 -4 52 -14 0 -16 -34 -31 -50 -21 -19 12 -79
-7 -86 -27 -6 -19 -14 -20 -157 -17 -103 1 -162 -2 -182 -10 -22 -9 -105 -12
-310 -11 -326 3 -305 4 -305 -15 0 -17 -14 -16 468 -23 l173 -2 -3 -42 -3 -43
-175 -5 c-147 -4 -175 -7 -175 -20 0 -13 26 -15 163 -18 l163 -3 -3 -37 -3
-37 -60 -2 c-47 -2 -63 -7 -74 -23 -12 -18 -25 -20 -104 -20 -98 0 -116 -9
-117 -61 0 -44 14 -49 157 -49 113 0 133 -2 133 -15 0 -9 -6 -18 -12 -20 -7
-3 -157 -6 -333 -7 -289 -3 -320 -5 -323 -20 -5 -24 36 -34 52 -13 11 15 13
15 25 2 10 -13 56 -16 298 -17 157 0 290 -3 294 -6 5 -3 9 -12 9 -20 0 -10
-12 -14 -44 -14 -24 0 -46 -5 -48 -11 -4 -13 -102 -17 -543 -20 -244 -1 -341
2 -372 11 -54 17 -103 0 -103 -35 0 -35 23 -48 72 -40 24 4 202 9 397 12 353
4 354 4 374 -18 19 -20 26 -21 107 -15 l86 6 17 -35 c13 -27 15 -41 7 -56 -9
-17 -22 -19 -104 -19 l-94 0 -6 -35 -7 -35 -258 0 c-248 0 -259 -1 -277 -21
-14 -15 -16 -24 -8 -37 9 -14 30 -18 102 -20 93 -3 121 -15 108 -47 -5 -14
-43 -15 -313 -11 -170 2 -332 7 -361 11 -60 8 -82 -3 -82 -41 0 -34 38 -47 93
-32 46 13 426 23 493 13 36 -5 42 -10 48 -35 l5 -30 98 -1 c163 -2 191 -4 199
-11 15 -16 -8 -21 -122 -24 -64 -2 -119 -5 -121 -8 -3 -3 -3 -17 1 -31 6 -23
10 -25 67 -25 59 0 61 -1 54 -22 -16 -50 -17 -90 -4 -99 8 -5 64 -9 126 -9 61
0 114 -3 116 -8 3 -4 3 -28 0 -54 l-6 -48 -291 -2 c-251 -3 -291 -5 -291 -18
0 -13 56 -15 431 -18 331 -2 434 -5 442 -15 6 -7 12 -26 14 -42 l3 -30 -220
-2 c-215 -1 -220 -2 -223 -22 -3 -21 0 -21 156 -21 87 0 200 -3 251 -7 86 -6
92 -7 97 -30 4 -14 3 -28 -2 -33 -5 -4 -250 -11 -544 -15 -473 -5 -539 -4
-572 9 -54 23 -133 21 -158 -4 -23 -23 -24 -33 -10 -61 15 -27 120 -27 173 1
36 20 56 20 595 21 306 1 575 2 596 3 46 1 59 -19 22 -35 -20 -9 -29 -9 -41 1
-12 10 -18 10 -29 1 -9 -8 -43 -12 -90 -10 -58 2 -80 -2 -94 -14 -13 -12 -43
-17 -117 -19 -95 -3 -100 -4 -103 -25 -5 -35 32 -43 208 -43 l159 0 3 -52 3
-53 89 -5 c86 -5 123 -21 76 -33 -12 -3 -20 -13 -20 -26 0 -20 5 -21 120 -21
132 0 144 -6 122 -56 -12 -24 -12 -24 -166 -24 -150 0 -183 -7 -159 -31 5 -5
102 -10 220 -10 l211 0 6 -41 c5 -29 3 -44 -6 -50 -7 -4 -138 -8 -290 -8 -243
0 -278 -2 -278 -15 0 -9 6 -18 13 -20 6 -2 138 -6 292 -7 l280 -3 6 -50 c3
-27 4 -53 2 -57 -2 -5 -81 -8 -174 -8 -157 0 -170 -1 -167 -17 3 -16 21 -19
168 -23 l165 -5 0 -60 0 -60 -200 -3 c-189 -2 -232 -9 -210 -31 6 -6 99 -12
208 -15 108 -3 202 -8 207 -11 6 -4 10 -66 10 -151 0 -137 1 -144 20 -144 18
0 20 8 22 141 3 121 6 143 20 153 26 16 33 1 38 -87 l5 -82 33 -3 c32 -3 32
-3 34 45 1 26 2 62 3 78 2 50 10 55 95 55 86 0 90 -3 90 -67 0 -23 4 -33 13
-30 7 2 12 22 12 48 0 44 0 44 38 47 l37 3 0 -90 c0 -79 2 -92 19 -101 27 -14
47 -13 65 6 30 29 36 5 36 -139 0 -78 5 -149 10 -157 20 -32 29 10 32 145 l3
140 25 0 25 0 3 -122 c2 -98 6 -123 17 -123 7 0 16 3 18 8 3 4 2 99 -2 212 -4
113 -5 209 -3 214 3 5 4 41 3 81 -2 55 1 75 14 85 8 7 18 11 21 8 21 -22 34
-817 14 -903 -7 -31 -6 -45 6 -63 35 -53 83 1 63 71 -5 17 -9 210 -9 428 0
417 -1 409 41 409 5 0 10 -117 11 -267 3 -238 5 -268 19 -271 15 -3 17 27 21
293 4 290 9 328 37 311 8 -5 11 -154 11 -492 l0 -484 25 0 c14 0 25 6 26 13 0
6 1 145 2 307 l2 295 26 3 26 3 6 -113 c4 -62 7 -220 7 -351 0 -222 1 -238 18
-235 16 3 17 29 22 333 5 322 6 330 25 330 18 0 20 -8 23 -77 3 -78 6 -84 36
-72 14 5 16 38 16 261 0 229 2 255 16 249 9 -3 20 -6 25 -6 6 0 5 -8 -1 -20
-7 -14 -7 -20 0 -20 7 0 10 -89 10 -265 0 -258 1 -265 20 -265 19 0 20 7 21
178 1 224 8 286 32 290 16 3 17 -11 17 -191 0 -230 4 -259 34 -255 21 3 21 8
26 253 l5 250 30 0 30 0 3 -341 c2 -305 4 -343 19 -348 9 -4 19 -4 22 0 3 3 7
159 9 347 1 188 5 348 7 355 3 7 14 12 25 10 19 -3 19 -15 26 -363 3 -198 7
-499 8 -670 l2 -310 22 -3 22 -3 1 523 c2 889 4 938 44 938 12 0 15 -14 15
-57 0 -32 3 -251 7 -488 9 -494 10 -685 3 -735 -5 -32 -3 -35 20 -35 l25 0 -4
125 c-2 68 -7 134 -12 147 -5 15 -3 25 7 34 9 7 14 26 13 43 -1 17 -1 125 0
239 l1 208 28 -3 c22 -2 27 -8 28 -33 0 -16 1 -114 2 -217 2 -181 3 -188 22
-188 19 0 20 7 22 263 1 144 3 312 4 372 1 61 3 136 3 168 1 55 2 57 28 57
l26 0 -4 -811 c-4 -749 -3 -813 13 -822 12 -8 21 -7 32 2 14 12 16 80 16 635
0 482 3 625 12 634 10 10 10 15 0 21 -21 13 -12 141 10 155 29 18 36 -4 28
-89 -4 -44 -3 -84 2 -90 4 -5 8 -67 8 -138 0 -108 -3 -132 -16 -142 -9 -6 -18
-31 -21 -56 -5 -40 -2 -47 20 -62 21 -14 26 -26 29 -69 4 -75 28 -77 28 -1 0
47 4 61 20 71 25 15 27 74 3 117 -14 25 -16 60 -14 230 2 208 8 236 45 222 14
-6 16 -54 16 -441 0 -291 3 -437 10 -441 6 -4 17 -1 25 5 17 15 21 140 5 170
-7 13 -6 21 5 30 12 10 14 86 15 473 0 394 2 464 15 476 11 11 18 12 26 4 7
-7 12 -209 16 -634 4 -547 7 -624 20 -624 13 0 15 37 17 275 l1 275 35 -1 c19
-1 44 -3 55 -5 17 -3 20 2 23 39 3 37 6 42 28 42 l24 0 0 -505 c0 -485 1 -505
18 -505 18 0 19 27 27 628 4 345 8 643 9 662 1 28 5 35 21 35 19 0 20 -7 20
-94 0 -66 4 -96 13 -99 9 -3 12 -76 12 -314 0 -289 1 -309 18 -306 16 3 17 27
22 293 l5 290 28 3 c15 2 28 -1 28 -7 1 -6 3 -15 4 -21 1 -5 3 -100 4 -210 1
-193 2 -200 21 -200 19 0 20 7 21 183 2 323 5 348 42 334 21 -8 27 -186 26
-787 0 -330 -5 -592 -13 -705 -14 -193 -10 -230 29 -230 39 0 43 35 33 285
-11 277 -7 1339 5 1358 7 10 12 10 23 1 11 -9 14 -41 14 -134 0 -67 3 -124 6
-127 3 -3 7 -91 9 -194 8 -482 18 -704 32 -704 11 0 13 86 13 483 l0 484 28
13 27 13 -25 6 c-21 6 -25 13 -25 45 0 42 20 64 48 53 14 -5 16 -35 17 -229 0
-122 4 -226 9 -231 26 -26 31 11 31 214 0 181 2 210 16 216 8 3 19 2 24 -3 4
-5 11 -173 15 -374 3 -200 9 -368 11 -372 3 -4 12 -8 20 -8 11 0 14 25 14 144
0 106 -3 146 -12 149 -10 4 -10 8 -1 14 8 6 12 115 16 379 2 205 8 377 11 383
15 23 36 11 37 -21 1 -18 2 -49 3 -68 1 -19 3 -156 4 -303 2 -231 4 -268 17
-274 9 -3 18 -3 21 0 3 3 6 118 7 257 2 227 4 254 19 264 11 7 21 7 27 1 5 -6
11 -174 14 -380 5 -350 6 -370 24 -370 17 0 18 22 18 487 0 336 3 490 11 498
6 6 18 8 27 4 15 -5 17 -33 17 -265 0 -213 2 -259 14 -259 30 0 36 28 38 191
l3 164 33 3 33 3 -1 -1297 c-2 -1345 -2 -1322 37 -1307 22 9 24 38 14 283 -10
269 -12 2259 -2 2455 5 106 9 130 21 130 13 0 16 -117 20 -970 l5 -970 22 -3
23 -3 2 657 c3 609 4 658 20 668 12 7 21 7 28 0 6 -6 12 -108 14 -254 5 -292
4 -270 15 -270 10 0 21 306 22 647 0 148 5 265 10 269 5 3 6 17 3 31 -6 20 -3
24 11 21 10 -1 22 -15 26 -29 10 -41 18 -539 8 -539 -12 0 -12 -83 0 -95 6 -6
11 -32 13 -60 2 -38 7 -51 20 -53 16 -3 18 13 20 195 3 190 4 198 23 198 19 0
20 -8 25 -297 3 -163 8 -300 12 -304 4 -4 14 -2 22 5 12 10 14 91 14 507 0
273 3 499 7 502 3 4 14 1 23 -4 15 -10 17 -37 20 -225 8 -529 16 -704 32 -704
13 0 15 28 18 180 1 99 5 186 7 193 2 6 14 12 26 12 l21 0 -3 -507 -3 -508 22
-3 c16 -2 22 2 22 15 -3 120 12 1407 16 1418 6 14 42 31 49 23 2 -2 6 -219 9
-483 2 -264 5 -481 5 -482 1 -2 8 -3 16 -3 8 0 16 1 17 3 1 1 5 218 8 482 5
472 5 480 25 480 19 0 20 -8 23 -297 2 -290 3 -298 22 -298 19 0 20 7 21 163
1 183 7 336 14 354 2 7 15 11 27 9 13 -3 26 -5 30 -5 3 -1 4 -64 1 -141 -4
-96 -3 -140 5 -140 6 0 17 -3 26 -6 14 -5 16 17 16 210 0 187 2 216 15 216 19
0 35 -40 34 -83 0 -18 3 -184 7 -369 7 -319 8 -338 26 -338 17 0 18 14 18 254
l0 254 30 4 c17 3 34 0 37 -6 4 -6 8 -279 9 -606 l2 -595 24 -3 c49 -6 52 11
40 226 -6 108 -11 382 -12 608 -1 332 1 413 12 422 8 6 19 7 27 2 12 -7 13
-90 8 -502 -3 -272 -2 -501 3 -508 4 -7 15 -10 24 -7 14 6 16 60 18 514 3 442
5 508 18 510 36 7 38 -5 46 -442 9 -409 10 -430 28 -433 10 -2 22 1 25 7 4 6
6 298 6 648 -1 351 0 648 3 661 2 13 12 22 22 22 23 0 30 -37 30 -166 0 -58 4
-106 10 -109 6 -4 10 -145 10 -391 0 -362 1 -385 18 -382 19 4 18 -26 20 361
l2 258 28 -3 27 -3 3 -312 c2 -304 3 -313 22 -313 19 0 20 9 22 351 3 321 5
353 20 363 13 8 21 7 32 -4 13 -13 16 -83 17 -462 1 -246 6 -453 10 -459 4 -7
14 -9 23 -6 14 6 16 39 16 291 0 254 -2 285 -16 290 -15 6 -15 8 -1 24 14 16
17 57 19 302 3 268 4 285 22 288 10 2 22 0 27 -5 5 -5 9 -190 9 -412 1 -222 4
-409 7 -417 3 -8 11 -14 18 -14 17 0 21 94 24 625 1 236 6 434 11 438 18 19
45 2 46 -28 0 -17 1 -281 2 -587 2 -478 4 -558 16 -558 8 0 18 6 23 13 4 6 10
210 13 452 5 438 5 440 26 443 20 3 21 -2 28 -140 3 -79 3 -395 -1 -703 -4
-308 -7 -591 -7 -630 -1 -68 0 -70 25 -73 50 -6 51 4 38 290 -7 172 -9 445 -5
793 7 579 12 685 31 685 18 0 23 -54 31 -317 6 -218 8 -233 25 -233 18 0 19
10 19 154 0 124 3 156 15 166 41 34 41 30 44 -606 1 -349 6 -610 12 -612 4 -2
12 -3 16 -3 5 1 8 240 9 532 1 554 0 548 41 549 20 0 23 -69 20 -418 -2 -316
-1 -333 17 -338 10 -3 22 -2 28 4 6 6 8 94 6 223 -6 414 2 527 35 516 8 -2 12
-34 12 -108 0 -93 2 -104 19 -107 16 -3 17 1 11 38 l-7 41 39 -3 38 -3 3 -236
c2 -198 5 -239 18 -250 12 -10 18 -9 32 5 19 19 18 -9 13 428 -1 152 0 282 4
287 30 49 45 -52 45 -301 0 -64 3 -123 6 -132 7 -19 39 -21 51 -3 4 6 10 91
13 187 5 167 6 175 25 175 17 0 20 -6 17 -41 -2 -23 1 -45 7 -49 7 -4 9 -26 5
-59 -7 -54 4 -77 24 -53 6 7 12 99 15 217 l4 205 29 0 29 0 7 -210 c4 -115 9
-313 10 -440 3 -197 5 -230 18 -230 13 0 16 53 20 400 l5 400 34 0 33 0 -1
-112 c-1 -75 2 -113 10 -118 18 -12 29 16 29 80 0 33 3 104 7 158 6 92 7 97
28 97 31 0 35 -15 35 -137 0 -103 0 -104 23 -101 21 3 22 7 24 107 1 109 13
142 38 108 16 -22 31 -472 21 -655 -5 -106 -4 -123 9 -128 9 -4 19 -4 22 0 8
7 5 415 -3 584 -7 119 -6 122 14 122 19 0 21 -7 24 -72 3 -72 3 -73 32 -76 38
-5 46 10 46 86 0 63 0 63 28 60 l27 -3 1 -88 c1 -89 9 -112 36 -102 12 5 15
24 14 98 l-1 92 30 0 30 0 3 -148 c2 -134 4 -148 20 -145 15 3 17 20 20 151
l3 147 29 0 29 0 3 -82 c2 -66 6 -83 18 -83 12 0 16 17 18 83 l3 83 27 -3 27
-3 0 -100 c1 -55 -5 -125 -12 -155 -18 -77 -16 -97 11 -115 21 -14 28 -14 46
-3 19 12 21 19 15 78 -3 36 -8 118 -11 183 -6 137 -28 121 166 122 110 0 125
2 128 18 3 16 -9 17 -148 17 l-151 0 3 68 3 67 142 5 c78 3 144 8 148 12 21
21 -16 28 -151 28 l-145 0 3 58 3 57 165 5 c138 4 165 7 165 20 0 13 -27 16
-165 20 l-165 5 -3 34 c-2 18 0 37 5 42 4 4 73 9 153 10 142 2 170 7 170 35 0
11 -26 14 -126 14 -123 0 -125 0 -122 21 2 12 14 30 28 40 27 21 63 24 393 36
156 5 178 8 175 22 -3 14 -25 16 -156 19 l-152 3 0 29 c0 35 7 37 124 43 94 5
111 18 102 83 -3 25 -1 45 6 52 8 8 64 12 173 12 159 0 162 0 185 25 l23 25
314 0 c272 0 313 2 313 15 0 10 -10 15 -27 16 -814 17 -935 21 -940 36 -3 9
-12 9 -29 2 -14 -5 -52 -9 -84 -9 -47 0 -61 4 -69 18 -5 10 -7 22 -3 28 10 14
171 11 180 -3 9 -14 34 -12 54 5 11 8 114 12 374 14 353 3 359 3 356 23 -6 30
-21 35 -87 29 -33 -3 -186 -6 -339 -7 l-279 -2 -18 32 c-14 24 -15 34 -6 40 7
4 115 10 240 11 206 4 228 6 225 20 -3 14 -20 18 -98 22 l-95 5 0 45 0 45 55
2 c101 5 120 11 120 38 0 24 -2 25 -69 25 -74 0 -86 8 -68 48 10 21 16 22 131
23 144 2 180 8 184 32 7 33 -17 47 -79 47 -58 0 -60 1 -65 30 -7 34 6 31 -188
31 -54 0 -107 4 -117 10 -13 6 -19 6 -19 -1 0 -5 -9 -10 -20 -10 -13 0 -20 7
-20 19 0 25 17 36 34 22 7 -6 16 -8 20 -4 3 4 136 7 294 7 256 1 287 3 290 17
5 25 -37 29 -309 29 l-249 0 0 30 c0 17 5 30 13 30 6 1 140 2 296 3 253 2 285
4 294 19 8 12 7 21 -2 32 -12 14 -55 16 -351 16 -185 0 -339 2 -341 5 -3 2 -3
20 -1 40 l4 35 79 0 79 0 0 29 c0 17 -4 32 -9 35 -4 3 -88 6 -185 6 -97 1
-176 5 -176 10 0 4 7 14 17 21 13 11 124 15 606 17 533 3 593 2 625 -14 43
-20 158 -16 173 7 16 25 10 68 -10 79 -29 15 -122 12 -155 -5 -24 -13 -109
-15 -567 -15 l-539 0 0 45 0 45 78 1 c42 0 97 4 122 7 l45 7 0 50 c-1 28 -5
58 -9 67 -7 16 3 18 125 20 114 3 134 5 137 19 3 15 -22 17 -235 23 -131 4
-280 5 -330 2 -75 -3 -93 -2 -93 10 0 19 -26 18 -34 -1 -8 -21 -53 -19 -59 3
-4 16 -5 16 -6 -1 -1 -13 -8 -17 -23 -15 -21 3 -23 8 -23 63 0 57 1 60 25 60
15 0 26 -6 26 -15 4 -39 7 -43 13 -20 l7 24 330 -3 c302 -2 332 -1 338 14 3 9
4 21 0 26 -3 5 -105 9 -229 9 -123 0 -226 3 -228 8 -3 4 -2 25 2 47 l6 40 305
1 c254 1 305 3 305 15 0 14 -243 22 -805 28 l-145 1 -17 30 c-16 28 -20 30
-82 30 -36 0 -68 -4 -71 -10 -12 -20 -35 -10 -35 15 l0 25 323 2 c177 1 341 1
365 0 36 -2 42 1 42 18 0 20 -7 20 -288 20 -159 0 -344 3 -411 7 l-122 6 3 26
c3 25 7 26 73 32 39 4 196 7 351 8 154 0 283 4 287 7 3 3 3 12 0 20 -4 12 -55
14 -289 14 -168 0 -284 4 -284 9 0 5 -7 17 -16 25 -12 12 -37 16 -105 16 -81
0 -90 2 -87 18 3 15 19 17 145 20 110 2 144 6 153 18 7 8 11 16 9 19 -3 2 -76
5 -164 7 l-160 3 0 45 0 45 146 3 c114 2 150 6 159 17 18 22 3 24 -160 27
l-145 3 0 50 0 50 210 2 c215 3 241 5 230 23 -4 6 -85 10 -214 10 -231 0 -235
1 -229 62 l3 33 60 3 c94 4 108 9 95 33 -10 18 -20 20 -83 18 l-72 -2 -3 51
c-2 35 2 59 12 74 23 32 21 120 -2 141 -24 22 -45 21 -67 -3 -19 -21 -18 -71
5 -174 13 -63 6 -88 -23 -81 -58 12 -68 10 -85 -18 -15 -24 -15 -29 -2 -38 8
-5 36 -7 63 -4 l47 6 0 -44 0 -44 -66 -7 c-37 -4 -69 -5 -71 -2 -3 2 -6 28 -7
58 -2 29 -6 60 -9 68 -4 8 -8 80 -9 160 -4 203 -22 189 -28 -22 -3 -91 -8
-170 -12 -173 -4 -4 -14 -5 -23 -2 -11 5 -15 21 -15 60 0 60 -13 79 -46 67
-18 -7 -21 -17 -22 -71 -1 -34 -5 -66 -11 -72 -23 -23 -31 8 -32 136 -1 165
-5 182 -44 182 l-30 0 -3 -181 c-2 -143 -5 -184 -17 -194 -29 -24 -35 0 -35
151 0 142 -1 149 -20 149 -19 0 -20 -7 -20 -171 l0 -170 -22 3 c-22 3 -23 7
-26 127 -1 69 -4 127 -7 129 -2 2 -11 2 -20 -1 -13 -5 -15 -30 -15 -156 l0
-149 -25 -4 c-13 -3 -27 -3 -30 0 -3 3 -5 60 -5 128 0 122 0 122 -25 126 -27
6 -32 -8 -37 -102 -3 -41 -6 -45 -30 -48 l-27 -3 0 431 c-1 237 -3 435 -6 440
-3 5 -12 7 -20 4 -15 -6 -17 -71 -27 -686 -3 -186 -5 -220 -20 -234 -9 -9 -21
-14 -26 -10 -6 3 -13 65 -17 136 -11 193 -28 178 -30 -25 0 -47 -2 -50 -27
-53 l-28 -3 7 224 6 224 -24 21 c-23 21 -24 24 -19 129 6 127 4 143 -21 143
-18 0 -19 -10 -21 -142 -2 -79 -3 -206 -3 -282 0 -122 -2 -140 -18 -150 -14
-8 -20 -8 -28 4 -7 10 -9 148 -7 400 l3 385 -32 3 c-22 2 -33 -1 -34 -10 -1
-7 0 -203 1 -435 2 -380 0 -423 -14 -423 -18 0 -21 -15 -6 -25 11 -7 13 -135
3 -238 -5 -61 -8 -68 -27 -65 -22 3 -24 34 -25 506 -1 157 -4 192 -15 192 -8
0 -17 -8 -20 -17 -4 -9 -4 -123 0 -253 5 -165 3 -243 -4 -257 -7 -13 -8 -31
-3 -50 12 -40 2 -133 -14 -133 -7 0 -15 6 -18 13 -3 7 -3 115 -1 239 3 152 2
228 -6 233 -6 4 -10 112 -10 320 0 272 -2 314 -15 319 -9 3 -17 0 -20 -7 -2
-6 -6 -193 -8 -415 -2 -222 -6 -405 -9 -407 -2 -3 -15 -6 -29 -7 l-24 -3 0
705 0 705 -22 3 c-29 4 -37 -26 -28 -115 9 -89 17 -1303 8 -1323 -3 -8 -5 -66
-4 -127 3 -97 1 -114 -14 -119 -9 -4 -20 -3 -26 3 -5 5 -9 232 -9 541 -1 522
-1 532 -20 532 -19 0 -20 -9 -21 -327 -1 -181 -5 -402 -8 -493 -6 -160 -7
-165 -28 -168 -21 -3 -22 0 -25 100 -2 57 -4 500 -6 984 -2 619 0 884 7 889 6
3 11 31 11 60 0 43 -4 56 -19 65 -24 12 -48 4 -56 -20 -3 -10 -1 -47 5 -82 11
-68 15 -1931 4 -1999 -5 -28 -11 -39 -24 -39 -26 0 -30 43 -30 363 l0 288 -22
-3 c-23 -3 -23 -6 -29 -198 -4 -107 -7 -210 -8 -227 -1 -28 -5 -33 -25 -33
-13 0 -26 6 -28 13 -2 6 -3 308 -2 670 2 553 0 657 -12 657 -11 0 -14 -51 -17
-287 -6 -624 -17 -1087 -26 -1096 -5 -5 -18 -6 -30 -2 -21 6 -21 10 -22 363
-1 196 -3 438 -5 537 -2 99 -4 186 -4 193 0 6 -7 12 -15 12 -17 0 -16 16 -19
-270 -4 -466 -8 -506 -56 -497 -13 2 -15 55 -18 395 -2 384 -3 392 -22 392
-20 0 -20 -8 -20 -499 0 -326 -4 -502 -10 -506 -6 -3 -19 -3 -30 0 -20 6 -20
14 -20 553 0 301 0 555 0 565 0 10 -8 17 -20 17 -20 0 -20 -7 -20 -494 l0
-494 -32 -11 c-17 -6 -33 -9 -35 -7 -10 9 -4 665 6 715 25 123 10 175 -49 169
l-35 -3 -3 -95 c-2 -56 2 -103 8 -115 12 -22 -2 -901 -15 -913 -3 -3 -14 -1
-23 4 -16 10 -17 60 -20 628 l-2 616 -23 0 -22 0 0 -620 c0 -482 -3 -622 -12
-632 -36 -35 -38 -5 -41 672 -3 576 -1 665 12 705 21 59 21 129 0 149 -18 18
-23 19 -44 6 -13 -8 -15 -67 -12 -454 3 -418 2 -445 -15 -455 -17 -10 -17 -12
0 -21 15 -10 17 -26 16 -128 -2 -194 -11 -266 -32 -270 -43 -8 -44 -6 -45 494
-1 262 -4 479 -6 482 -3 2 -12 2 -21 -1 -13 -6 -15 -51 -15 -361 0 -230 -4
-357 -10 -361 -6 -4 -8 -10 -5 -15 6 -10 7 -97 2 -430 l-2 -195 -24 -3 -24 -4
7 436 c7 398 6 437 -9 442 -32 13 -37 -12 -39 -181 -1 -177 -3 -185 -53 -185
l-23 0 0 476 c0 261 -2 480 -6 485 -3 6 -13 9 -21 7 -13 -3 -15 -68 -15 -548
1 -300 -1 -553 -4 -562 -3 -10 -13 -18 -23 -18 -17 0 -18 26 -24 398 -4 218
-7 549 -7 735 0 317 -1 338 -17 335 -17 -3 -18 -42 -20 -622 -1 -340 -3 -620
-5 -621 -2 -2 -15 -6 -29 -10 l-26 -6 -6 317 c-4 174 -7 447 -7 605 0 264 -5
321 -25 289 -4 -6 -8 -291 -8 -633 -2 -549 -4 -622 -17 -625 -24 -4 -40 149
-40 366 0 155 -2 182 -15 182 -8 0 -15 -1 -15 -2 -1 -2 -3 -212 -6 -468 -4
-256 -10 -470 -15 -476 -5 -6 -7 -13 -4 -16 2 -2 6 -29 9 -58 4 -54 -9 -79
-39 -80 -11 0 -14 118 -3 135 4 6 3 17 -3 25 -5 9 -9 210 -9 468 l0 453 -22
-3 -23 -3 -5 -305 c-4 -262 -7 -305 -20 -305 -12 0 -16 26 -20 150 -6 169 6
1326 15 1509 5 93 3 121 -7 127 -16 11 -30 11 -43 1z m-1077 -1755 c2 -187 2
-188 -20 -197 l-23 -9 23 0 c25 -1 29 -23 7 -41 -37 -30 -41 -10 -43 209 -2
117 0 217 4 222 3 6 16 9 27 7 22 -3 22 -7 25 -191z m232 44 c0 -58 0 -59 -31
-63 -37 -6 -44 7 -35 64 9 53 12 58 42 58 23 0 24 -3 24 -59z m720 -36 c0 -76
-3 -97 -15 -101 -35 -14 -40 1 -37 100 3 94 4 96 28 96 24 0 24 -1 24 -95z
m413 21 c7 -17 -18 -40 -33 -31 -5 3 -10 15 -10 26 0 23 35 27 43 5z m-2828
-46 c11 -21 15 -61 15 -148 0 -65 -3 -121 -6 -124 -3 -3 -13 -4 -22 -1 -16 4
-18 20 -17 154 0 82 3 149 7 149 4 0 14 -13 23 -30z m1353 -43 c2 -34 -1 -47
-10 -47 -25 0 -34 19 -30 60 3 31 8 40 21 38 12 -2 17 -16 19 -51z m1762 1
c-1 -29 -1 -57 0 -63 1 -5 1 -37 0 -70 -2 -56 -15 -84 -32 -67 -6 6 -12 112
-8 137 1 6 1 34 0 63 -1 47 1 52 20 52 19 0 21 -5 20 -52z m-290 27 c16 -20 5
-45 -20 -45 -16 0 -20 7 -20 30 0 33 19 40 40 15z m-742 -134 c2 -94 0 -112
-13 -117 -9 -4 -19 -3 -23 1 -9 9 -7 209 3 225 4 6 12 9 18 7 8 -2 13 -42 15
-116z m1272 -35 c0 -116 -1 -125 -20 -131 -11 -3 -24 -3 -30 0 -11 7 -14 237
-3 248 3 4 17 7 30 7 23 0 23 -1 23 -124z m-529 88 c10 -13 10 -17 -2 -25 -23
-14 -39 -10 -39 9 0 34 20 42 41 16z m1073 -59 c-1 -219 -1 -428 0 -485 1 -63
0 -65 -24 -65 -24 0 -25 2 -21 50 2 27 7 60 12 72 6 17 5 23 -6 23 -11 0 -14
41 -17 233 -2 147 1 235 7 240 6 4 19 6 30 5 18 -3 20 -11 19 -73z m-2548 -5
c-3 -63 -8 -76 -25 -65 -23 13 -9 125 15 125 10 0 13 -15 10 -60z m543 47 c14
-17 4 -27 -26 -27 -25 0 -29 10 -11 28 15 15 23 15 37 -1z m2973 -41 c2 -17
-2 -31 -9 -33 -9 -3 -13 8 -13 38 0 47 16 44 22 -5z m-1860 -8 c-13 -13 -24 5
-16 27 7 16 8 16 17 0 6 -11 6 -20 -1 -27z m-3294 -29 c-1 -26 3 -44 13 -51
11 -8 10 -9 -4 -4 -10 3 -23 6 -28 6 -10 0 -12 73 -2 83 16 16 24 4 21 -34z
m2700 -31 c-2 -38 -8 -63 -15 -66 -10 -3 -13 14 -13 62 0 53 3 66 15 66 13 0
15 -11 13 -62z m420 45 c4 -16 -22 -27 -43 -19 -22 8 -6 38 18 34 11 -2 22 -9
25 -15z m960 -11 c3 -16 -2 -22 -17 -22 -24 0 -35 15 -27 36 9 23 40 13 44
-14z m-3870 -58 c-1 -60 -3 -64 -25 -64 -19 0 -23 5 -23 30 0 22 5 30 18 30
16 1 16 1 0 11 -21 12 -24 55 -5 62 29 10 37 -5 35 -69z m1962 41 c0 -9 -7
-18 -16 -22 -18 -7 -39 11 -30 26 11 17 46 13 46 -4z m86 0 c4 -8 1 -22 -6
-30 -9 -10 -9 -15 -1 -15 6 0 11 -11 11 -25 0 -16 -6 -25 -15 -25 -8 0 -15 3
-16 8 -9 74 -7 102 7 102 8 0 17 -7 20 -15z m2574 5 c0 -5 -7 -10 -15 -10 -8
0 -15 5 -15 10 0 6 7 10 15 10 8 0 15 -4 15 -10z m-4770 -55 c0 -19 -4 -35
-10 -35 -5 0 -10 16 -10 35 0 19 5 35 10 35 6 0 10 -16 10 -35z m4018 7 c3
-16 -2 -22 -17 -22 -26 0 -36 17 -20 36 16 19 33 13 37 -14z m752 -183 l0
-210 -22 3 c-23 3 -23 3 -24 211 l-2 207 24 0 23 0 1 -211z m-4067 144 c0 -29
-6 -59 -12 -67 -9 -10 -9 -16 -1 -21 8 -5 8 -11 -1 -21 -8 -10 -9 -18 0 -27
13 -17 5 -27 -22 -27 -17 0 -18 4 -12 38 5 20 7 65 6 99 -3 69 3 86 26 81 12
-2 16 -16 16 -55z m2341 51 c20 -8 9 -34 -15 -34 -12 0 -19 7 -19 20 0 21 8
24 34 14z m839 -54 c-9 -23 -8 -32 3 -41 12 -9 12 -15 2 -27 -7 -8 -12 -17
-10 -19 8 -12 -1 -43 -13 -43 -12 0 -15 16 -15 88 0 95 5 111 29 87 12 -12 13
-21 4 -45z m465 -123 c2 -155 0 -178 -13 -184 -9 -3 -20 -2 -25 3 -11 11 -15
337 -5 354 4 6 14 10 23 8 15 -3 17 -25 20 -181z m868 149 c7 -31 -1 -46 -26
-46 -15 0 -18 7 -17 35 2 42 33 50 43 11z m214 -87 c0 -81 -3 -101 -15 -106
-9 -3 -18 -3 -21 0 -7 7 -13 173 -7 196 3 13 11 17 24 14 17 -5 19 -15 19
-104z m-3745 76 c0 -21 -31 -33 -46 -18 -5 5 -7 17 -3 27 9 24 49 17 49 -9z
m-332 -138 c1 -74 -1 -138 -5 -142 -4 -4 -14 -5 -23 -2 -12 5 -15 28 -15 132
0 125 11 178 32 157 5 -5 11 -71 11 -145z m750 -61 c-1 -114 -4 -210 -7 -213
-3 -3 -12 -3 -21 1 -14 5 -16 31 -14 208 1 112 4 207 6 211 3 4 12 7 21 5 15
-3 17 -25 15 -212z m-533 123 c0 -71 -2 -80 -17 -77 -15 3 -19 16 -21 67 -3
73 1 91 23 91 12 0 15 -15 15 -81z m2677 65 c3 -8 1 -20 -5 -26 -7 -7 -7 -16
0 -28 15 -24 3 -50 -22 -50 -24 0 -38 26 -22 42 8 8 8 17 0 31 -8 16 -7 23 8
34 23 17 33 16 41 -3z m1913 6 c9 -81 8 -89 -11 -95 -26 -9 -39 2 -39 31 0 34
-34 29 -39 -6 -1 -14 -8 -28 -14 -32 -17 -10 -47 10 -47 33 0 29 -28 35 -59
11 -27 -19 -28 -20 -39 -1 -15 23 -16 56 -2 61 16 5 250 3 250 -2z m-6822 -47
l3 -43 -35 0 c-29 0 -36 4 -36 20 0 13 -7 20 -19 20 -14 0 -18 -5 -14 -20 5
-18 0 -20 -44 -20 -49 0 -50 1 -45 26 3 19 1 25 -7 20 -6 -4 -11 -16 -11 -27
0 -16 -7 -19 -40 -19 -40 0 -40 0 -40 38 0 21 3 42 7 46 4 3 68 5 142 4 l136
-3 3 -42z m104 -44 c4 -136 -2 -289 -12 -289 -5 0 -16 13 -25 30 -12 22 -15
65 -15 190 l0 160 25 0 c24 0 24 -2 27 -91z m3601 84 c4 -3 2 -12 -4 -20 -9
-10 -8 -13 5 -13 22 0 20 -17 -3 -29 -24 -13 -31 -5 -31 36 0 31 16 44 33 26z
m-2455 -135 c3 -110 2 -126 -13 -132 -9 -3 -21 -3 -27 0 -12 8 -8 235 5 252
24 30 32 2 35 -120z m3427 51 c0 -67 -2 -74 -20 -74 -18 0 -20 7 -21 65 -1 65
9 94 30 87 7 -2 11 -33 11 -78z m-1817 33 c3 -17 -2 -22 -18 -22 -25 0 -38 29
-19 41 20 13 34 6 37 -19z m-2050 -26 c2 -24 -2 -42 -9 -47 -19 -11 -31 0 -24
22 4 11 1 26 -5 34 -15 18 -4 37 18 33 12 -2 18 -15 20 -42z m87 34 c4 -6 1
-17 -5 -26 -14 -16 -40 -2 -40 22 0 16 36 19 45 4z m1449 2 c2 -4 2 -27 -1
-50 -5 -37 -9 -43 -27 -40 -16 2 -21 11 -23 38 -1 19 0 41 2 48 5 13 41 17 49
4z m3486 -22 c0 -13 -5 -18 -15 -14 -8 4 -15 12 -15 20 0 8 7 14 15 14 8 0 15
-9 15 -20z m-2972 -210 c2 -185 -2 -215 -32 -191 -20 17 -24 366 -4 374 30 12
33 -4 36 -183z m370 152 c4 -25 -19 -30 -37 -9 -8 10 -7 17 1 25 17 17 32 10
36 -16z m489 12 c3 -9 1 -19 -5 -23 -7 -4 -7 -21 -2 -51 11 -52 11 -282 2
-355 -5 -37 -12 -51 -25 -53 -17 -3 -18 12 -16 247 1 241 2 251 20 251 11 0
22 -7 26 -16z m1505 6 c2 -5 1 -37 0 -70 -3 -40 -8 -60 -16 -60 -9 0 -14 21
-15 70 -1 55 1 70 13 70 8 0 16 -4 18 -10z m1283 -26 c0 -18 -5 -29 -14 -29
-15 0 -24 31 -16 53 9 24 30 6 30 -24z m-6215 -4 c0 -16 -4 -30 -10 -30 -5 0
-10 14 -10 30 0 17 5 30 10 30 6 0 10 -13 10 -30z m1610 0 c0 -31 -17 -39 -38
-18 -24 24 -13 40 31 47 4 0 7 -12 7 -29z m3937 -5 c-1 -44 -32 -50 -40 -8 -6
34 -1 43 23 43 14 0 18 -7 17 -35z m-5888 -5 l54 0 -6 -41 c-8 -57 -18 -64
-51 -34 -25 23 -29 24 -54 11 -19 -10 -34 -11 -52 -4 -16 6 -40 5 -68 -2 -53
-13 -62 -8 -62 34 0 48 10 53 102 44 46 -5 107 -8 137 -8z m4955 -52 c-1 -40
-3 -73 -4 -73 -1 0 -3 -31 -4 -70 -2 -54 -6 -71 -18 -73 -25 -5 -29 12 -19 75
6 37 5 62 -1 70 -6 7 -6 18 0 28 5 9 6 36 2 61 -8 49 -5 54 24 54 20 0 21 -5
20 -72z m1405 58 c8 -9 11 -73 9 -207 -3 -193 -3 -194 -25 -197 l-23 -3 0 210
c0 173 3 211 14 211 7 0 19 -6 25 -14z m296 -182 c0 -133 -3 -166 -15 -174 -8
-5 -18 -6 -22 -4 -4 3 -8 83 -8 179 0 130 3 174 13 178 27 10 32 -18 32 -179z
m223 132 c-3 -36 -6 -41 -28 -41 -22 0 -25 5 -28 42 -2 33 0 42 15 45 35 8 44
-3 41 -46z m-2290 27 c-5 -25 -28 -28 -28 -4 0 12 6 21 16 21 9 0 14 -7 12
-17z m2196 -20 c-8 -57 -12 -63 -34 -63 -17 0 -20 6 -20 50 0 49 1 50 29 50
29 0 30 -1 25 -37z m-1033 -5 c0 -91 -3 -134 -10 -141 -12 -12 -20 30 -17 86
1 26 -1 50 -6 53 -10 6 9 34 24 34 5 0 9 -15 9 -32z m-4828 -12 c3 -8 6 -132
7 -275 0 -248 0 -261 -18 -261 -18 0 -19 15 -25 238 -4 151 -3 252 4 275 10
38 23 47 32 23z m1025 -43 c-2 -44 -7 -58 -18 -58 -10 0 -16 12 -18 34 -5 47
5 81 24 81 12 0 14 -11 12 -57z m1237 -120 c-3 -149 -10 -183 -34 -169 -12 8
-16 328 -5 339 4 3 15 2 25 -4 17 -9 18 -22 14 -166z m1540 157 c0 -22 -29
-18 -33 3 -3 14 1 18 15 15 10 -2 18 -10 18 -18z m1832 -9 c4 -26 -14 -54 -28
-45 -5 3 -9 21 -9 40 0 28 4 35 17 32 9 -2 18 -14 20 -27z m-6063 13 c21 -8
21 -34 0 -34 -8 0 -25 5 -36 11 -17 9 -18 13 -7 20 17 10 23 11 43 3z m-136
-112 c2 -94 1 -102 -16 -102 -17 0 -20 11 -25 97 -4 70 -2 100 6 105 26 16 32
-2 35 -100z m1996 99 c9 -14 -4 -41 -20 -41 -8 0 -14 8 -14 18 0 29 22 43 34
23z m151 -53 c-2 -35 -4 -66 -4 -70 -1 -5 -5 -8 -11 -8 -5 0 -10 16 -10 35 0
19 -5 46 -12 60 -10 22 -9 28 3 36 32 20 38 10 34 -53z m103 27 c2 -17 1 -67
-3 -112 -5 -62 -10 -83 -21 -83 -11 0 -14 18 -16 78 0 42 -2 91 -3 107 -2 38
3 47 23 43 10 -2 18 -15 20 -33z m-1117 13 c2 -7 3 -125 1 -261 l-3 -248 -22
3 c-22 3 -22 4 -23 248 -2 241 1 270 31 270 7 0 14 -6 16 -12z m89 -232 c0
-134 -3 -251 -6 -260 -3 -9 -12 -16 -20 -16 -16 0 -15 -8 -18 303 0 115 1 211
3 213 2 2 13 4 23 4 17 0 18 -14 18 -244z m858 222 c-4 -28 -21 -33 -42 -13
-24 24 -20 35 15 35 26 0 30 -3 27 -22z m267 -78 c0 -88 -1 -95 -20 -95 -18 0
-20 8 -23 98 -3 98 -3 98 20 95 22 -3 23 -7 23 -98z m573 -72 c-3 -146 -5
-173 -18 -173 -12 0 -16 28 -22 160 -4 88 -5 166 -3 173 2 6 14 12 25 12 20 0
20 -4 18 -172z m93 145 c4 -97 0 -334 -7 -344 -5 -9 -11 -7 -21 6 -10 14 -13
63 -13 192 0 166 1 173 20 173 15 0 20 -7 21 -27z m489 -157 c0 -183 -5 -211
-33 -188 -9 8 -12 60 -10 189 0 98 2 179 2 181 1 1 10 2 21 2 19 0 20 -7 20
-184z m1806 141 c0 -25 -4 -37 -13 -37 -9 0 -13 13 -13 41 0 52 24 48 26 -4z
m601 -129 c3 -194 -7 -330 -24 -320 -18 11 -20 471 -2 483 7 4 16 4 19 -1 3
-4 6 -77 7 -162z m-2610 123 c1 -28 -2 -32 -20 -29 -21 3 -24 18 -12 56 9 25
30 6 32 -27z m-2817 -203 c0 -232 -4 -268 -25 -268 -22 0 -25 26 -25 230 0
226 4 260 31 260 18 0 19 -12 19 -222z m3118 48 c3 -163 -3 -191 -33 -166 -12
10 -15 40 -15 165 0 83 3 155 7 159 4 4 14 5 23 4 13 -3 15 -28 18 -162z
m1968 99 c1 -74 -3 -95 -21 -95 -10 0 -14 20 -17 73 -4 82 -3 89 20 85 13 -3
17 -16 18 -63z m-2926 -28 c0 -78 -9 -103 -34 -94 -23 9 -23 133 0 158 26 29
34 13 34 -64z m-2746 58 c3 -9 -1 -18 -10 -22 -19 -7 -39 11 -30 26 10 16 33
13 40 -4z m2834 -167 c-3 -175 -4 -183 -23 -183 -19 0 -20 8 -23 169 -2 92 -1
175 2 182 3 8 15 14 26 14 21 0 21 -3 18 -182z m382 45 c0 -130 -8 -178 -27
-159 -8 7 -21 267 -15 286 2 6 12 10 23 10 18 0 19 -9 19 -137z m78 115 c-2
-13 -10 -23 -18 -23 -8 0 -16 10 -18 23 -3 17 2 22 18 22 16 0 21 -5 18 -22z
m502 -189 c0 -195 -1 -210 -17 -207 -16 3 -18 22 -21 197 -2 107 -1 200 2 207
3 8 12 14 21 14 13 0 15 -28 15 -211z m2508 58 c2 -119 1 -127 -16 -127 -17 0
-20 11 -25 122 -5 121 -1 144 28 135 6 -2 11 -57 13 -130z m-375 1 c6 -143 3
-275 -6 -284 -3 -4 -13 -4 -22 -1 -13 6 -15 35 -15 207 0 188 1 200 19 200 17
0 19 -12 24 -122z m285 -38 c3 -167 -1 -200 -22 -200 -23 0 -26 24 -26 197 l0
164 23 -3 c22 -3 22 -6 25 -158z m-6216 100 c2 -23 1 -45 -3 -51 -10 -17 -26
14 -26 54 -1 52 24 50 29 -3z m5003 20 c4 -6 2 -17 -5 -25 -8 -10 -8 -19 -1
-34 17 -31 13 -41 -14 -41 -25 0 -34 14 -16 25 6 3 6 17 1 34 -10 38 17 70 35
41z m-1591 -125 c-1 -111 -3 -120 -20 -120 -17 0 -19 9 -22 90 -4 115 3 157
26 153 15 -3 17 -18 16 -123z m486 -80 c0 -176 -2 -206 -15 -212 -9 -3 -19 -3
-22 0 -7 8 -5 395 2 408 4 5 13 9 21 9 12 0 14 -33 14 -205z m100 90 c0 -63 0
-118 0 -122 1 -5 -8 -9 -20 -11 -19 -3 -20 1 -20 122 0 119 1 126 20 126 19 0
20 -7 20 -115z m101 -5 c-1 -63 -5 -118 -7 -122 -3 -4 -11 -5 -19 -1 -12 4
-15 29 -15 125 0 118 0 119 22 116 22 -3 23 -5 19 -118z m-4566 75 c0 -28 -29
-25 -33 3 -3 19 0 23 15 20 10 -2 18 -12 18 -23z m72 9 c9 -23 -11 -38 -26
-20 -13 16 -7 36 10 36 5 0 12 -7 16 -16z m886 -161 c4 -121 2 -182 -5 -191
-22 -25 -27 5 -28 158 -2 209 -2 210 13 210 11 0 15 -38 20 -177z m-799 159
c9 -14 -12 -35 -28 -29 -23 9 -20 37 3 37 11 0 22 -4 25 -8z m56 -12 c0 -11
-7 -20 -15 -20 -8 0 -15 9 -15 20 0 11 7 20 15 20 8 0 15 -9 15 -20z m77 3 c2
-6 -1 -14 -6 -18 -6 -3 -11 -1 -11 6 0 9 -3 9 -14 0 -16 -13 -32 1 -21 19 8
12 48 7 52 -7z m1039 -152 c1 -134 -2 -164 -13 -168 -8 -3 -19 0 -24 8 -10 17
-12 145 -2 253 5 63 9 76 22 74 14 -3 16 -25 17 -167z m3329 63 c0 -81 -3 -99
-15 -99 -12 0 -16 18 -18 89 -3 97 1 120 21 113 8 -2 12 -32 12 -103z m102 2
c3 -102 -6 -128 -34 -104 -9 7 -13 40 -12 110 1 95 2 99 22 96 20 -3 21 -10
24 -102z m79 94 c12 11 18 10 31 -3 22 -22 0 -52 -27 -37 -10 6 -25 7 -33 4
-18 -7 -31 11 -23 33 5 12 9 13 21 3 12 -10 18 -10 31 0z m114 -15 c0 -18 -5
-25 -19 -25 -26 0 -36 17 -21 35 19 23 40 18 40 -10z m-3072 -163 c2 -167 2
-172 -18 -172 -19 0 -20 6 -20 168 0 93 3 172 7 176 22 22 28 -11 31 -172z
m-644 91 c9 -110 -2 -345 -17 -355 -6 -4 -13 -5 -15 -4 -2 3 -4 346 -2 424 0
6 6 12 14 12 10 0 15 -22 20 -77z m1060 48 c7 -10 -22 -37 -30 -28 -9 8 3 37
15 37 5 0 12 -4 15 -9z m1486 -63 c0 -77 -8 -108 -26 -108 -11 0 -14 17 -14
69 0 38 -3 76 -6 85 -5 12 0 16 20 16 25 0 26 -2 26 -62z m3178 -55 c-2 -88
-6 -108 -18 -108 -12 0 -15 18 -16 100 -1 109 0 115 22 115 12 0 14 -18 12
-107z m-5450 -56 c2 -115 0 -137 -12 -137 -21 0 -25 22 -25 140 0 114 5 143
22 137 8 -2 13 -47 15 -140z m92 -4 c0 -123 -2 -134 -17 -131 -16 3 -18 18
-20 128 -3 139 -1 152 22 144 12 -5 15 -29 15 -141z m-190 58 c0 -32 3 -86 6
-119 6 -53 4 -62 -11 -68 -32 -13 -34 2 -25 234 0 6 7 12 15 12 12 0 15 -13
15 -59z m3930 44 c0 -8 -9 -15 -20 -15 -11 0 -20 7 -20 15 0 8 9 15 20 15 11
0 20 -7 20 -15z m118 3 c-6 -18 -28 -21 -28 -4 0 9 7 16 16 16 9 0 14 -5 12
-12z m-4708 -128 c0 -103 -1 -110 -20 -110 -19 0 -20 7 -20 110 0 103 1 110
20 110 19 0 20 -7 20 -110z m89 20 c2 -101 -3 -130 -25 -130 -11 0 -14 21 -14
110 0 100 2 110 18 110 16 0 19 -10 21 -90z m1141 -25 c0 -97 -2 -105 -19
-105 -17 0 -19 10 -23 93 -5 106 -3 117 23 117 17 0 19 -9 19 -105z m354 87
c2 -4 1 -14 -4 -22 -7 -11 -12 -12 -21 -3 -6 6 -8 16 -5 22 8 13 23 14 30 3z
m2511 -2 c7 -12 -12 -50 -26 -50 -13 0 -22 27 -15 45 6 17 32 20 41 5z m1360
-26 c0 -19 -5 -29 -15 -29 -16 0 -25 28 -16 51 10 25 31 10 31 -22z m73 -1
c-3 -43 -31 -54 -36 -15 -5 32 4 52 23 52 13 0 15 -9 13 -37z m-199 -14 c-16
-10 -23 -4 -14 10 3 6 11 8 17 5 6 -4 5 -9 -3 -15z m-3451 -24 c3 -37 -11 -60
-32 -52 -16 6 -23 67 -9 81 16 15 38 0 41 -29z m182 -15 c0 -43 -13 -58 -35
-40 -18 15 -20 77 -2 83 25 8 37 -6 37 -43z m85 -1 c0 -38 -3 -44 -22 -47 -21
-3 -23 1 -23 41 0 43 11 59 35 53 6 -2 10 -23 10 -47z m-357 2 c2 -21 0 -31
-7 -26 -6 3 -11 1 -11 -4 0 -21 -21 -10 -31 16 -13 35 -4 55 23 51 18 -2 24
-11 26 -37z m178 23 c-3 -9 -6 -29 -6 -45 0 -22 -5 -29 -20 -29 -17 0 -20 7
-20 45 0 42 2 45 26 45 20 0 25 -4 20 -16z m260 -26 c-3 -24 -5 -44 -5 -45 -1
-2 -7 -3 -15 -3 -8 0 -15 14 -18 34 -5 45 0 56 24 56 18 0 19 -5 14 -42z
m-526 11 c8 -15 8 -24 0 -34 -16 -19 -40 -7 -40 19 0 40 23 48 40 15z m2450
11 c0 -5 -4 -10 -10 -10 -5 0 -10 5 -10 10 0 6 5 10 10 10 6 0 10 -4 10 -10z
m1663 2 c10 -14 -6 -62 -19 -62 -9 0 -14 12 -14 35 0 24 5 35 14 35 8 0 17 -3
19 -8z m467 -27 c0 -8 -7 -15 -15 -15 -8 0 -15 7 -15 15 0 8 7 15 15 15 8 0
15 -7 15 -15z m-4955 -65 c7 -23 -1 -40 -19 -40 -20 0 -34 20 -29 41 7 25 40
24 48 -1z m83 -7 c-3 -31 -34 -44 -44 -19 -9 24 3 46 26 46 17 0 21 -5 18 -27z
m4402 -3 c0 -11 -7 -20 -15 -20 -8 0 -15 9 -15 20 0 11 7 20 15 20 8 0 15 -9
15 -20z m-3272 -27 c-2 -10 -10 -18 -18 -18 -8 0 -16 8 -18 18 -2 12 3 17 18
17 15 0 20 -5 18 -17z m-2863 -80 c-3 -43 -10 -82 -15 -87 -18 -18 -750 -35
-829 -20 l-31 7 0 71 c0 39 4 76 8 83 11 18 50 20 475 21 l398 2 -6 -77z
m2728 45 c4 -30 -5 -47 -25 -48 -5 0 -8 18 -8 40 0 50 25 56 33 8z m-89 -17
c8 -12 -21 -34 -34 -26 -17 11 -11 35 9 35 11 0 22 -4 25 -9z m931 -11 c0 -18
-33 -26 -47 -12 -6 6 -7 15 -3 22 10 16 50 8 50 -10z m85 0 c0 -22 -3 -23 -37
-14 -33 9 -28 29 7 31 24 2 30 -2 30 -17z m78 3 c-2 -10 -10 -18 -18 -18 -8 0
-16 8 -18 18 -2 12 3 17 18 17 15 0 20 -5 18 -17z m1914 -38 c89 -20 141 -48
178 -95 38 -47 90 -152 90 -180 0 -26 -50 -35 -156 -26 -81 6 -86 8 -123 45
-53 53 -104 61 -174 27 -48 -23 -107 -67 -107 -81 0 -3 6 -5 14 -5 12 0 13
-12 9 -57 -7 -90 3 -84 -140 -81 l-128 3 -3 39 c-2 21 2 51 9 67 11 28 13 29
93 30 44 1 92 5 106 10 16 5 -11 7 -77 4 -115 -4 -109 -9 -94 72 14 69 71 151
132 186 83 48 260 68 371 42z m-850 -50 c11 -41 4 -223 -9 -236 -7 -7 -78 -10
-194 -9 -101 1 -194 1 -206 1 -12 0 -24 3 -27 8 -5 8 73 136 133 218 l31 42
103 4 c164 5 160 6 169 -28z m1946 20 c1 -1 3 -60 5 -131 l2 -129 -210 0
c-244 0 -241 -2 -180 93 20 31 54 86 76 121 l40 63 132 -7 c73 -4 133 -8 135
-10z m-7315 -117 c5 -20 5 -60 0 -90 l-8 -53 -116 -3 c-64 -1 -128 2 -143 7
-25 10 -26 14 -26 86 0 73 0 75 28 81 15 3 32 7 37 9 6 2 57 3 115 2 l104 -2
9 -37z m1274 -72 c25 -4 66 -22 99 -44 31 -20 67 -43 80 -50 28 -15 32 -57 10
-101 -19 -37 -103 -111 -126 -111 -10 0 -45 20 -79 45 -116 86 -207 82 -252
-11 -19 -39 -24 -69 -27 -161 -4 -111 -5 -113 -30 -120 -25 -6 -24 -6 12 -21
29 -11 34 -17 25 -28 -6 -8 -9 -21 -5 -29 3 -8 1 -26 -4 -40 -9 -25 -10 -25
-135 -25 -70 0 -135 5 -146 10 -14 8 -19 21 -19 53 0 68 6 71 127 77 l108 5
-115 10 -115 10 0 60 0 60 60 8 c33 4 97 7 143 5 45 -2 82 0 82 5 0 4 -61 7
-135 7 -135 0 -135 0 -147 25 -8 17 -8 37 -2 63 l9 37 140 5 c148 6 146 7 -33
19 -61 4 -116 11 -121 17 -9 10 1 180 12 190 11 12 91 23 164 24 71 0 73 -1
88 -30 18 -35 25 -37 48 -10 9 11 25 20 35 20 10 0 23 5 28 10 12 12 126 29
159 24 11 -1 39 -5 62 -8z m951 -26 c68 -26 97 -45 124 -82 20 -29 20 -30 1
-56 -11 -15 -22 -35 -26 -44 -9 -26 -108 -88 -139 -88 -16 0 -47 14 -73 34
-60 47 -73 49 -135 28 -43 -15 -54 -23 -56 -43 -1 -13 -8 -46 -14 -74 -6 -27
-10 -79 -8 -114 l3 -65 -35 -9 c-35 -9 -240 -5 -256 6 -5 3 -7 34 -4 69 l5 63
135 5 135 4 -135 6 -135 5 -3 33 c-2 21 4 43 18 62 l21 30 132 1 132 2 -100 9
c-55 5 -126 7 -157 4 l-58 -4 0 33 c0 19 -4 36 -9 40 -5 3 -13 35 -17 72 -10
97 5 103 200 86 69 -5 79 -9 87 -30 9 -24 24 -30 34 -13 4 6 27 22 53 35 43
23 54 25 137 20 54 -3 111 -13 143 -25z m778 5 c86 -34 134 -70 168 -125 49
-77 67 -72 -217 -68 -176 2 -258 0 -268 -8 -8 -6 -69 -14 -136 -18 -141 -8
-141 -8 -93 68 53 83 142 148 230 167 56 13 271 2 316 -16z m904 11 c19 -8 62
-24 95 -36 33 -12 61 -23 63 -25 2 -2 -1 -12 -7 -24 -7 -13 -8 -22 -1 -26 12
-8 50 -79 50 -95 0 -6 -8 -14 -17 -17 -10 -4 -36 -24 -58 -45 -47 -46 -78 -49
-114 -10 -64 70 -128 91 -184 60 -12 -6 -53 -15 -92 -18 -66 -7 -67 -7 -18 -9
l52 -1 -6 -57 c-3 -32 -11 -61 -17 -66 -6 -4 -69 -6 -141 -5 l-130 3 0 60 0
60 95 5 95 5 -100 8 c-54 4 -100 9 -102 10 -3 3 -22 108 -30 160 -3 21 -1 43
4 48 5 5 54 12 109 15 103 7 144 -2 144 -31 0 -26 19 -25 73 4 29 16 62 31 73
34 39 10 130 6 164 -7z m618 -19 c2 -15 -1 -27 -6 -27 -17 0 -34 29 -28 46 9
23 31 11 34 -19z m-9 -58 c-11 -6 -9 -12 5 -28 15 -17 16 -24 7 -35 -19 -23
-41 -8 -41 28 0 34 17 59 33 49 5 -3 3 -9 -4 -14z m3328 12 c6 6 14 4 23 -6 7
-8 9 -15 4 -16 -85 -8 -96 -6 -88 16 4 10 12 11 29 5 13 -5 26 -5 32 1z m76
-5 c7 -16 -1 -26 -20 -26 -7 0 -13 9 -13 20 0 23 25 27 33 6z m-2547 -19 c1
-1 4 -27 7 -59 l5 -56 -33 -6 c-49 -10 -215 5 -216 18 -1 6 -1 19 0 29 3 23
-11 22 -29 -4 -32 -46 -40 -50 -91 -43 -34 5 -49 3 -49 -5 0 -6 17 -11 40 -11
42 0 66 -24 40 -40 -7 -4 -24 -30 -39 -56 -24 -46 -29 -49 -69 -52 -44 -3 -50
-22 -6 -22 32 0 32 -27 -3 -79 -27 -41 -42 -48 -118 -52 -73 -4 -165 2 -165
11 0 5 16 34 35 64 37 59 44 62 145 69 37 3 34 4 -17 5 -34 1 -65 7 -68 12 -4
6 11 36 33 68 33 49 44 58 78 63 26 4 30 7 14 8 -48 2 -52 20 -14 64 18 22 34
47 34 54 0 8 9 17 21 21 16 6 460 5 465 -1z m1877 3 l97 0 0 -59 c0 -58 0 -59
-32 -66 -18 -5 -76 -9 -128 -10 -136 -3 -152 -4 -146 -14 3 -4 -14 -37 -37
-72 l-43 -64 -114 -3 c-62 -1 -117 1 -122 6 -12 12 22 86 52 108 15 11 49 21
85 25 l60 6 -62 1 c-52 2 -63 5 -63 19 0 28 62 122 84 127 12 3 77 3 146 0 69
-2 169 -4 223 -4z m-7254 -14 c7 -8 11 -37 9 -68 l-3 -53 -134 -3 c-90 -2
-138 1 -147 9 -9 7 -14 32 -14 70 l0 59 139 0 c107 0 141 -3 150 -14z m6513
-46 c4 -38 3 -57 -5 -62 -16 -10 -235 -10 -240 0 -3 4 -8 33 -12 65 l-7 58
129 -3 128 -3 7 -55z m-3306 -89 c12 -1 44 -80 47 -116 2 -19 -4 -20 -88 -20
-99 0 -171 8 -182 18 -4 4 -8 17 -10 29 -2 12 -11 33 -19 46 -28 43 -16 47
117 45 68 -1 129 -2 135 -2z m2183 -62 c8 -35 10 -64 5 -69 -5 -4 -59 -10
-121 -12 l-112 -4 -3 30 c-2 17 -1 50 0 73 l4 42 91 3 c51 2 99 2 108 0 10 -2
20 -25 28 -63z m-5001 55 c24 -5 31 -13 37 -38 28 -136 20 -149 -107 -158 -51
-3 -148 -7 -215 -7 l-123 -1 0 -39 c0 -49 -6 -51 -128 -51 -143 0 -142 0 -142
76 l0 64 98 0 c53 0 104 5 112 10 10 7 -21 10 -97 10 l-113 0 0 64 c0 59 2 65
23 69 35 7 621 8 655 1z m2285 -14 c-2 -14 -9 -47 -19 -97 -4 -22 -8 -23 -120
-23 -130 0 -135 3 -115 70 15 49 22 54 101 61 105 10 155 6 153 -11z m3266 6
c7 -8 11 -37 9 -68 l-3 -53 -127 -3 c-120 -2 -128 -1 -128 16 0 11 -3 40 -6
65 -6 44 -6 46 22 50 16 2 72 5 125 6 73 1 99 -3 108 -13z m581 -56 l0 -70
-67 -2 c-67 -2 -67 -2 -13 -5 30 -3 60 -9 67 -15 17 -13 17 -110 1 -126 -8 -8
-49 -12 -119 -12 -91 0 -108 2 -113 17 -9 23 4 122 16 129 6 4 5 9 -2 14 -14
9 -26 100 -17 125 5 12 28 15 127 15 l120 0 0 -70z m830 23 c0 -27 3 -58 6
-70 6 -20 3 -23 -27 -24 -33 0 -33 -1 -9 -10 13 -6 28 -15 32 -22 13 -20 9
-115 -4 -120 -15 -5 -182 2 -215 9 -21 4 -23 10 -23 63 0 68 2 69 110 73 65 2
65 2 -19 7 l-85 6 3 60 c1 33 5 63 7 67 3 5 54 8 115 8 l109 0 0 -47z m570
-69 c0 -31 -2 -35 -15 -24 -18 15 -19 32 -3 48 17 17 18 16 18 -24z m-102 3
c4 -21 -25 -34 -40 -19 -8 8 -15 9 -25 1 -9 -9 -17 -8 -28 1 -12 10 -18 10
-30 0 -19 -16 -39 -1 -30 22 4 11 23 14 78 14 60 -1 72 -4 75 -19z m60 0 c4
-20 -25 -34 -39 -20 -14 14 1 45 20 41 9 -2 17 -11 19 -21z m82 6 c-1 -18 -18
-35 -24 -24 -4 6 -4 16 -1 21 7 12 25 13 25 3z m-4712 -56 c7 -5 12 -32 12
-73 l0 -64 -102 1 c-57 1 -116 4 -133 8 -29 6 -30 9 -33 64 -2 32 1 64 7 70
10 14 227 8 249 -6z m-3903 -4 c0 -7 -3 -13 -7 -13 -5 0 -20 0 -34 0 -21 0
-24 3 -15 14 14 16 56 16 56 -1z m73 -1 c2 -8 -8 -12 -27 -12 -29 0 -39 9 -25
23 10 10 47 2 52 -11z m3200 12 c38 -8 40 -14 34 -86 l-4 -58 -88 0 c-48 0
-102 3 -119 6 -31 6 -31 7 -31 70 0 57 2 63 23 67 36 7 152 8 185 1z m1036 0
c11 -4 16 -18 15 -43 -1 -35 -26 -128 -28 -103 -1 8 -25 12 -85 12 -46 0 -104
3 -130 6 l-47 7 3 56 3 56 55 6 c79 8 196 10 214 3z m1742 -7 c1 -1 4 -29 5
-62 l4 -60 -122 -3 -123 -3 0 65 0 65 73 4 c66 4 157 1 163 -6z m535 3 c15 -9
19 -21 19 -68 0 -61 -11 -89 -29 -78 -20 13 -12 -5 11 -24 20 -16 21 -22 12
-66 l-9 -49 -117 0 c-73 0 -121 4 -128 11 -15 15 -15 93 -1 107 7 7 53 14 104
17 l92 5 -95 9 c-52 5 -98 13 -102 20 -4 6 -8 33 -8 59 0 40 4 49 23 57 31 12
204 12 228 0z m1025 -2 c3 -4 -12 -33 -33 -65 l-39 -58 -117 -3 c-114 -3 -117
-2 -117 19 0 24 34 87 59 107 12 10 44 13 128 10 62 -2 115 -7 119 -10z m932
-81 c3 -21 -1 -27 -17 -27 -27 0 -34 15 -21 40 15 28 34 21 38 -13z m68 12 c4
-8 9 -8 17 0 14 14 47 14 47 1 0 -6 8 -5 20 2 15 10 24 10 39 1 13 -8 22 -8
29 -1 6 6 18 8 27 4 12 -4 13 -10 6 -24 -7 -14 -22 -19 -56 -20 -25 0 -45 4
-45 9 0 5 -7 9 -15 9 -8 0 -15 -4 -15 -9 0 -13 -81 -11 -98 2 -9 7 -9 13 -1
23 14 17 35 18 45 3z m-8968 -43 c7 -4 12 -14 12 -21 0 -11 -6 -12 -26 -5 -14
6 -30 7 -35 4 -6 -3 -16 0 -24 6 -10 8 -15 9 -15 2 0 -7 -20 -11 -47 -10 -56
0 -68 5 -54 21 11 13 169 16 189 3z m60 -9 c2 -10 -3 -17 -12 -17 -18 0 -29
16 -21 31 9 14 29 6 33 -14z m42 -2 c0 -14 -4 -25 -10 -25 -11 0 -14 33 -3 43
11 11 13 8 13 -18z m60 10 c9 -11 10 -19 2 -27 -14 -14 -32 -1 -32 23 0 23 13
25 30 4z m60 -15 c0 -11 -7 -20 -15 -20 -8 0 -15 9 -15 20 0 11 7 20 15 20 8
0 15 -9 15 -20z m67 4 c9 -23 -11 -38 -26 -20 -13 16 -7 36 10 36 5 0 12 -7
16 -16z m60 -16 c-3 -8 -6 -5 -6 6 -1 11 2 17 5 13 3 -3 4 -12 1 -19z m51 10
c-3 -7 -12 -14 -21 -16 -12 -2 -15 1 -11 12 7 19 38 22 32 4z m4239 -24 c29
-4 32 -9 39 -49 10 -67 5 -71 -82 -78 -185 -16 -207 -9 -202 68 2 40 7 52 27
61 22 11 139 10 218 -2z m-1732 -64 l0 -65 -135 -2 c-80 -1 -140 3 -147 9 -17
13 -17 100 -1 116 9 9 51 12 148 10 l135 -3 0 -65z m1350 60 c24 -9 25 -12 19
-62 -3 -30 -13 -59 -22 -65 -11 -9 -54 -13 -129 -13 l-113 0 0 69 c0 46 4 71
13 74 23 10 205 7 232 -3z m1645 0 c12 -8 12 -10 -3 -16 -15 -6 -14 -9 10 -22
21 -12 58 -16 143 -16 l115 -1 5 30 5 30 105 3 c126 3 148 -1 152 -31 3 -19 8
-21 38 -18 91 10 85 16 86 -76 1 -45 4 -93 8 -106 3 -13 0 -32 -7 -42 -12 -15
-36 -18 -190 -23 -152 -4 -179 -3 -201 12 -22 14 -59 16 -259 16 -176 0 -237
3 -245 13 -9 10 -18 84 -24 194 -3 56 11 63 136 63 61 0 118 -4 126 -10z
m1622 -65 c-1 -38 -8 -101 -13 -138 -13 -84 -25 -91 -151 -85 -49 2 -88 1 -88
-4 0 -4 36 -8 79 -8 86 0 131 -11 131 -33 0 -7 -26 -41 -58 -74 -71 -75 -98
-84 -257 -90 -184 -8 -293 18 -359 83 -40 40 -80 103 -72 112 4 4 114 6 244 5
131 -1 245 0 254 3 9 3 16 13 16 22 -1 9 9 40 22 69 20 43 30 54 60 61 l35 10
-36 1 c-24 1 -39 7 -43 17 -8 22 -7 87 2 101 5 8 43 13 102 16 150 5 135 13
132 -68z m358 68 c0 -5 -7 -17 -15 -27 -8 -11 -15 -23 -15 -27 0 -13 102 -20
186 -13 83 7 85 8 91 34 6 34 29 40 154 40 l89 0 0 -30 0 -30 74 0 c54 0 77
-4 87 -16 16 -19 20 -194 4 -195 -5 0 -41 -5 -80 -11 -38 -5 -127 -12 -197
-15 -109 -3 -128 -2 -128 11 0 12 -35 15 -236 18 -283 4 -264 -7 -264 143 0
96 1 103 23 113 25 12 227 16 227 5z m-6884 -65 l3 -57 -36 -7 c-20 -4 -84 -3
-142 2 l-106 9 4 50 c1 28 5 54 8 58 2 4 63 6 135 5 l131 -3 3 -57z m2664 -3
l0 -65 -82 0 c-115 0 -154 12 -162 50 -3 17 -1 41 4 55 9 25 11 25 125 25
l115 0 0 -65z m-3425 15 c0 -8 -8 -16 -17 -18 -13 -2 -18 3 -18 18 0 15 5 20
18 18 9 -2 17 -10 17 -18z m69 14 c9 -3 16 -10 16 -16 0 -5 -4 -7 -9 -4 -5 3
-14 -1 -21 -9 -15 -18 -30 -10 -30 16 0 19 15 24 44 13z m56 -18 c0 -16 -18
-31 -27 -22 -8 8 5 36 17 36 5 0 10 -6 10 -14z m-325 -46 c0 -22 -39 -19 -43
3 -3 15 1 18 20 15 12 -2 23 -10 23 -18z m6908 -50 c12 0 17 -8 17 -25 0 -14
11 -37 25 -51 14 -14 25 -33 25 -42 0 -15 -14 -17 -142 -14 -164 4 -168 6
-168 83 0 57 3 58 135 53 50 -2 98 -4 108 -4z m-5945 -45 c2 -22 7 -44 12 -49
5 -5 121 -8 258 -7 148 1 253 -2 256 -7 8 -13 -28 -22 -92 -22 -30 0 -51 -4
-47 -9 5 -10 137 -10 164 -1 21 7 43 -166 23 -183 -20 -16 -819 -16 -849 1
-20 11 -23 21 -23 77 0 102 -17 95 219 96 221 1 308 11 186 21 -39 3 -78 2
-88 -4 -19 -10 -287 0 -306 11 -6 4 -8 29 -4 64 l6 58 141 -3 141 -3 3 -40z
m996 -97 c9 -188 15 -182 -168 -186 -128 -3 -133 -3 -139 17 -8 32 4 140 18
151 6 5 68 11 138 12 70 2 127 7 127 11 0 5 -64 9 -143 10 l-142 2 0 55 c0 30
1 58 3 63 2 4 70 7 151 7 l148 0 7 -142z m917 100 c3 -97 -1 -99 -166 -96
l-130 3 -3 68 -3 67 151 0 150 0 1 -42z m743 32 c14 -5 26 -14 26 -20 0 -13
16 -34 53 -68 15 -15 27 -30 27 -34 0 -5 -67 -8 -150 -8 -145 0 -150 1 -165
23 -8 13 -18 44 -21 70 l-7 47 106 0 c58 0 117 -4 131 -10z m599 3 c2 -5 0
-31 -5 -59 -8 -44 -13 -52 -41 -62 -39 -13 -243 -10 -258 5 -7 7 -2 22 15 48
14 21 26 42 26 47 0 5 10 13 23 18 27 11 234 13 240 3z m417 -63 l0 -71 -137
3 -138 3 -3 54 c-5 84 -10 81 143 81 l135 0 0 -70z m4209 8 c11 -30 -5 -53
-25 -37 -24 20 -17 50 14 58 1 1 6 -9 11 -21z m68 -22 c-8 -20 -36 -21 -43 -1
-4 8 0 22 7 31 11 13 14 13 27 0 8 -8 12 -22 9 -30z m-130 18 c9 -25 -11 -38
-38 -24 -22 12 -22 13 -4 26 24 18 34 18 42 -2z m188 -9 c0 -11 -7 -21 -16
-23 -18 -3 -33 23 -23 39 10 17 39 5 39 -16z m82 8 c5 -14 -33 -36 -47 -28 -6
3 -10 15 -10 25 0 14 7 18 27 17 14 -1 28 -8 30 -14z m61 -7 c3 -13 -1 -17
-14 -14 -11 2 -20 11 -22 22 -3 13 1 17 14 14 11 -2 20 -11 22 -22z m-9168 4
c0 -5 -2 -10 -4 -10 -3 0 -8 5 -11 10 -3 6 -1 10 4 10 6 0 11 -4 11 -10z m75
1 c3 -5 1 -12 -4 -15 -12 -8 -41 3 -41 15 0 12 37 12 45 0z m75 -11 c0 -22 -3
-23 -37 -14 -27 7 -30 21 -5 27 34 9 42 7 42 -13z m53 8 c4 -10 8 -9 16 2 8
11 13 12 22 3 6 -6 9 -16 5 -21 -6 -11 -82 -11 -78 1 1 4 2 12 2 17 0 14 27
12 33 -2z m100 0 c3 -10 8 -10 21 1 14 12 22 12 36 3 12 -7 21 -8 25 -2 11 17
37 11 33 -7 -3 -14 -16 -17 -76 -19 -64 -1 -72 1 -72 18 0 20 26 25 33 6z
m157 -14 c0 -22 -2 -25 -15 -14 -8 7 -15 19 -15 26 0 8 7 14 15 14 10 0 15
-10 15 -26z m46 15 c10 -17 -13 -36 -27 -22 -12 12 -4 33 11 33 5 0 12 -5 16
-11z m8774 -5 c0 -12 -9 -15 -47 -12 -66 5 -70 28 -4 28 40 0 51 -3 51 -16z
m-5054 -91 c-17 -33 -104 -125 -140 -148 -54 -36 -383 -28 -455 10 -41 21
-131 115 -131 136 0 18 14 19 361 19 199 0 364 2 367 5 12 12 12 3 -2 -22z
m-1300 6 c12 -20 4 -122 -12 -147 -14 -22 -18 -22 -162 -20 l-147 3 1 73 c1
41 7 79 14 87 10 12 41 15 156 15 96 0 145 -4 150 -11z m1769 -58 c10 -103 6
-107 -112 -113 -54 -3 -116 -3 -138 1 -40 6 -40 7 -43 55 -3 49 12 104 32 118
6 4 66 8 132 8 l122 0 7 -69z m1733 57 c7 -7 12 -40 12 -79 0 -97 -8 -103
-132 -97 -55 3 -103 9 -107 14 -5 5 -6 46 -4 92 l6 82 106 0 c70 0 111 -4 119
-12z m1970 -1 c8 -5 12 -34 12 -83 0 -71 -1 -75 -26 -84 -14 -6 -72 -10 -130
-10 l-104 0 0 85 c0 79 2 86 23 95 25 11 206 8 225 -3z m564 -162 c10 -4 13
-16 10 -36 -4 -28 -7 -30 -41 -27 -32 3 -36 6 -33 28 4 34 29 48 64 35z
m-8504 -43 c2 -14 -2 -22 -12 -22 -19 0 -28 14 -20 35 9 21 28 14 32 -13z
m8420 -4 c3 -13 -3 -18 -22 -18 -20 0 -26 5 -26 21 0 15 5 20 22 17 13 -2 24
-11 26 -20z m-6568 -138 c0 -22 -7 -25 -29 -11 -16 10 -6 31 15 31 8 0 14 -9
14 -20z m2845 -26 c0 -28 -4 -39 -15 -39 -15 0 -24 47 -15 73 10 27 30 5 30
-34z m73 0 c0 -37 -3 -45 -16 -42 -9 2 -17 12 -17 23 0 11 -4 26 -8 33 -11 16
0 32 23 32 15 0 18 -8 18 -46z m1482 6 c0 -13 -7 -20 -20 -20 -23 0 -26 10 -8
28 18 18 28 15 28 -8z m58 -14 c3 -13 -1 -17 -14 -14 -11 2 -20 11 -22 22 -3
13 1 17 14 14 11 -2 20 -11 22 -22z m42 9 c0 -8 -7 -15 -15 -15 -26 0 -18 20
13 29 1 1 2 -6 2 -14z m-6172 -29 c6 -29 -15 -43 -35 -24 -14 14 -14 20 -3 33
16 19 34 15 38 -9z m151 15 c19 -12 4 -51 -19 -51 -23 0 -38 39 -19 51 8 5 16
9 19 9 3 0 11 -4 19 -9z m71 -15 c0 -22 -22 -37 -37 -25 -16 14 -17 36 0 42
17 6 37 -3 37 -17z m68 -9 c2 -19 -1 -27 -12 -27 -18 0 -35 29 -29 48 9 23 38
8 41 -21z m-210 0 c5 -25 -28 -34 -44 -12 -21 28 -17 37 13 33 17 -2 29 -10
31 -21z m6607 3 c0 -8 -10 -16 -22 -18 -18 -3 -23 2 -23 18 0 16 5 21 23 18
12 -2 22 -10 22 -18z m84 11 c14 -9 9 -41 -6 -41 -19 1 -35 19 -30 34 7 18 16
20 36 7z m81 -6 c0 -9 -9 -15 -25 -15 -24 0 -32 10 -18 23 12 13 43 7 43 -8z
m58 -2 c-4 -22 -22 -20 -26 1 -2 10 3 16 13 16 10 0 15 -7 13 -17z m100 0 c2
-9 -7 -13 -27 -13 -30 0 -39 9 -24 24 11 10 46 3 51 -11z m52 -3 c0 -21 -24
-28 -35 -10 -8 14 3 30 21 30 8 0 14 -9 14 -20z m118 1 c2 -7 -14 -11 -47 -11
-47 0 -61 7 -44 23 10 11 87 1 91 -12z m382 -2 c0 -5 -11 -9 -25 -9 -24 0 -32
10 -19 22 8 8 44 -3 44 -13z m148 1 c2 -11 -8 -15 -43 -17 -42 -1 -62 8 -52
25 3 4 25 7 48 7 31 0 45 -4 47 -15z m452 7 c0 -25 -17 -39 -36 -30 -15 7
-159 9 -159 3 0 -1 -55 -2 -123 -3 -117 -2 -122 -1 -122 19 0 20 5 20 220 22
170 2 220 -1 220 -11z m80 3 c13 -8 12 -11 -5 -24 -11 -9 -25 -16 -32 -16 -14
0 -35 35 -26 44 9 9 46 7 63 -4z m-1010 -10 c0 -5 -9 -10 -20 -10 -11 0 -20 5
-20 10 0 6 9 10 20 10 11 0 20 -4 20 -10z m-2640 -56 c0 -28 -3 -35 -17 -32
-31 6 -29 68 2 68 11 0 15 -10 15 -36z m-72 -7 c2 -19 -1 -27 -13 -27 -19 0
-30 24 -21 46 9 23 31 11 34 -19z m147 4 c0 -31 -21 -38 -35 -11 -13 24 -5 42
18 38 10 -2 17 -13 17 -27z m85 0 c0 -14 -28 -33 -40 -26 -11 7 -14 38 -4 48
8 8 44 -10 44 -22z m-1932 2 c-5 -26 -38 -29 -38 -4 0 15 6 21 21 21 14 0 19
-5 17 -17z m72 2 c10 -12 7 -16 -16 -25 -37 -14 -58 4 -30 26 25 18 31 18 46
-1z m73 1 c7 -17 -1 -26 -24 -26 -21 0 -33 15 -24 30 9 15 42 12 48 -4z m47
-7 c0 -24 -23 -21 -28 4 -2 10 3 17 12 17 10 0 16 -9 16 -21z m78 -2 c3 -14
-1 -18 -20 -15 -12 2 -24 11 -26 21 -3 14 1 18 20 15 12 -2 24 -11 26 -21z
m70 6 c-2 -10 -12 -18 -23 -18 -11 0 -21 8 -23 18 -3 13 3 17 23 17 20 0 26
-4 23 -17z m80 -3 c-4 -18 -36 -26 -50 -12 -16 16 0 32 28 30 16 -2 24 -8 22
-18z m62 10 c11 -7 12 -12 3 -21 -15 -15 -43 -5 -43 16 0 17 18 19 40 5z m850
-5 c0 -9 -9 -15 -21 -15 -18 0 -19 2 -9 15 7 8 16 15 21 15 5 0 9 -7 9 -15z
m70 -5 c0 -11 -7 -20 -15 -20 -8 0 -15 9 -15 20 0 11 7 20 15 20 8 0 15 -9 15
-20z m580 -1 c0 -14 -5 -19 -17 -17 -26 5 -29 38 -4 38 15 0 21 -6 21 -21z
m58 -1 c-2 -15 -10 -23 -23 -23 -13 0 -21 8 -23 23 -3 18 1 22 23 22 22 0 26
-4 23 -22z m90 0 c-2 -15 -10 -23 -23 -23 -13 0 -21 8 -23 23 -3 18 1 22 23
22 22 0 26 -4 23 -22z m100 0 c-2 -15 -10 -23 -23 -23 -13 0 -21 8 -23 23 -3
18 1 22 23 22 22 0 26 -4 23 -22z m82 10 c0 -22 -17 -41 -29 -34 -19 12 -13
46 9 46 11 0 20 -6 20 -12z m66 1 c7 -12 -15 -31 -31 -26 -5 2 -11 11 -13 20
-4 19 32 24 44 6z m59 -9 c0 -8 -10 -16 -22 -18 -18 -3 -23 2 -23 18 0 16 5
21 23 18 12 -2 22 -10 22 -18z m-1155 0 c0 -5 -7 -10 -15 -10 -8 0 -15 5 -15
10 0 6 7 10 15 10 8 0 15 -4 15 -10z m1200 0 c0 -5 -7 -10 -15 -10 -8 0 -15 5
-15 10 0 6 7 10 15 10 8 0 15 -4 15 -10z m-4497 -81 c27 -7 44 -21 62 -49 30
-48 31 -75 6 -117 -27 -43 -72 -62 -156 -65 l-70 -3 -3 -70 c-3 -105 -6 -112
-42 -107 -16 2 -30 7 -31 11 -4 29 -3 385 1 392 3 4 46 10 95 12 50 1 92 4 95
5 3 1 22 -3 43 -9z m2787 -214 l0 -203 -24 -6 c-31 -8 -49 -1 -61 23 -27 53
-160 231 -169 228 -6 -2 -11 -24 -12 -48 -3 -195 -4 -207 -20 -213 -40 -15
-44 7 -44 221 l0 204 37 -3 c27 -2 41 -10 52 -29 9 -15 36 -59 61 -99 25 -40
50 -80 55 -89 6 -9 19 -29 30 -46 l20 -29 5 144 c5 144 5 144 30 150 14 4 28
5 33 3 4 -2 7 -96 7 -208z m3920 16 c0 -213 -3 -225 -41 -217 -16 3 -53 1 -84
-5 -71 -13 -125 1 -159 42 -23 28 -26 39 -26 115 0 97 9 111 88 145 36 16 59
19 95 14 l49 -6 -4 48 c-3 46 -2 48 27 53 53 11 55 3 55 -189z m448 178 c-2
-6 -8 -10 -13 -10 -5 0 -11 4 -13 10 -2 6 4 11 13 11 9 0 15 -5 13 -11z
m-5838 -24 c0 -8 -4 -15 -9 -15 -13 0 -22 16 -14 24 11 11 23 6 23 -9z m2280
-20 c0 -32 2 -35 29 -35 42 0 82 -17 76 -32 -7 -17 -53 -38 -82 -38 -23 0 -24
-2 -21 -87 l3 -88 55 -5 c52 -5 57 -8 52 -39 -1 -5 -24 -14 -51 -21 -41 -10
-54 -9 -80 4 -43 23 -51 44 -51 140 0 63 -3 86 -13 86 -22 0 -56 30 -51 44 3
8 16 17 28 20 17 4 24 13 24 31 0 35 19 55 53 55 26 0 29 -3 29 -35z m1178 13
c-2 -19 -10 -23 -43 -25 -22 -2 -72 -5 -112 -9 l-72 -6 0 -54 c1 -54 1 -54 33
-54 17 0 48 -3 69 -6 31 -6 37 -11 37 -30 0 -21 -4 -24 -42 -24 -80 0 -88 -6
-89 -64 -1 -69 -11 -100 -34 -105 -39 -7 -45 23 -45 210 0 133 3 179 13 182 6
3 74 6 150 6 138 1 138 1 135 -21z m-3620 -61 c2 -10 -10 -30 -27 -46 -24 -23
-31 -37 -31 -68 0 -39 -6 -47 -70 -81 -13 -7 -41 -12 -62 -11 -20 2 -40 0 -44
-4 -11 -11 45 -27 97 -27 27 0 57 -4 67 -9 9 -5 25 -12 35 -15 9 -3 22 -18 28
-33 21 -57 -25 -97 -124 -109 -120 -14 -195 19 -182 80 3 17 7 47 9 66 2 19 6
45 10 57 4 12 2 24 -4 28 -5 3 -10 32 -10 63 0 46 5 61 23 77 30 28 99 49 140
42 18 -3 49 -1 68 3 49 12 73 8 77 -13z m486 -27 c30 -30 39 -47 43 -83 5 -45
5 -46 -28 -52 -19 -3 -74 -9 -122 -14 -48 -5 -91 -11 -94 -15 -11 -10 28 -45
64 -57 20 -6 56 -9 82 -5 25 3 53 2 60 -3 12 -8 11 -13 -10 -30 -32 -27 -142
-29 -194 -3 -39 19 -75 80 -75 128 0 90 65 170 144 176 65 6 88 -2 130 -42z
m-1122 30 c9 0 29 -10 43 -23 25 -21 27 -31 34 -127 4 -58 11 -113 15 -122 12
-28 -37 -42 -75 -23 -26 14 -32 14 -59 0 -39 -20 -105 -19 -141 2 -53 31 -49
113 8 150 12 8 57 20 100 25 43 6 80 13 82 14 2 2 -2 10 -9 19 -9 11 -33 15
-89 15 -65 0 -78 3 -88 20 -9 14 -10 21 -1 26 19 12 122 32 143 28 11 -2 28
-4 37 -4z m2691 -19 c44 -17 67 -66 67 -144 0 -111 -39 -147 -158 -147 -63 0
-73 3 -100 28 -36 34 -47 80 -38 156 13 104 113 151 229 107z m3882 8 c10 -15
-1 -23 -20 -15 -9 3 -13 10 -10 16 8 13 22 13 30 -1z m-1926 -28 c57 -41 65
-195 11 -246 -22 -21 -40 -27 -98 -32 -61 -5 -75 -3 -106 16 -53 33 -66 57
-66 124 0 88 32 142 95 160 41 12 134 -1 164 -22z m309 -81 c4 -139 22 -161
102 -122 l35 17 5 99 c5 98 5 100 32 107 17 4 31 3 35 -4 10 -16 12 -250 2
-269 -7 -14 -27 -16 -117 -17 -107 -1 -109 -1 -136 28 -26 27 -28 36 -33 134
-7 128 -4 139 39 135 l33 -3 3 -105z m693 77 c31 -21 35 -28 42 -92 4 -39 6
-97 5 -130 -3 -59 -3 -60 -33 -60 l-30 0 -3 108 -3 108 -36 16 c-35 14 -40 14
-80 -6 l-43 -21 0 -77 c0 -107 -6 -125 -39 -121 l-26 3 -5 120 c-4 93 -2 125
8 143 15 23 58 30 64 10 3 -8 13 -7 34 4 45 24 105 22 145 -5z m-4064 -151
c-4 -9 -11 -16 -17 -16 -17 0 -24 31 -9 41 18 11 34 -5 26 -25z m-109 12 c-5
-14 -58 -22 -58 -9 0 12 7 16 35 19 17 1 25 -2 23 -10z m62 3 c0 -5 -7 -14
-16 -22 -13 -10 -17 -10 -24 1 -5 8 -6 18 -4 22 7 11 44 10 44 -1z m113 -6 c4
-8 2 -17 -4 -21 -15 -9 -39 3 -39 21 0 19 36 20 43 0z m1791 -7 c3 6 20 7 40
2 19 -4 40 -4 47 0 7 5 18 6 26 3 17 -6 17 -33 1 -34 -33 -2 -153 3 -157 6 -2
2 -1 12 3 21 5 13 9 14 20 5 9 -7 17 -8 20 -3z m161 2 c5 -8 11 -7 21 1 11 9
14 7 14 -15 0 -14 -4 -26 -10 -26 -5 0 -10 5 -10 12 0 9 -3 9 -12 0 -19 -19
-28 -14 -28 13 0 26 14 33 25 15z m95 -20 c0 -11 -7 -20 -15 -20 -8 0 -15 9
-15 20 0 11 7 20 15 20 8 0 15 -9 15 -20z m-2288 -120 c2 -5 1 -39 0 -75 -3
-54 -7 -66 -20 -63 -13 2 -16 17 -17 76 -1 62 2 72 16 72 10 0 19 -4 21 -10z
m266 -43 c3 -44 -13 -87 -33 -87 -12 0 -15 13 -15 64 0 42 4 66 13 69 20 7 33
-10 35 -46z m1860 17 c4 -36 -19 -62 -36 -42 -5 7 -7 28 -5 46 7 43 37 40 41
-4z m-2040 -31 c3 -47 1 -53 -16 -53 -24 0 -32 18 -32 72 0 35 2 39 23 36 19
-3 22 -10 25 -55z m84 -3 c-5 -97 -42 -95 -42 1 0 57 1 60 23 57 20 -3 22 -8
19 -58z m180 40 c-5 -22 -6 -112 -1 -129 2 -8 -4 -16 -13 -19 -14 -3 -16 3
-13 37 2 22 -1 43 -6 46 -5 4 -9 24 -9 46 0 36 2 40 23 37 13 -2 21 -9 19 -18z
m1843 -16 c0 -22 -5 -29 -20 -29 -24 0 -34 43 -13 56 21 14 33 4 33 -27z m76
20 c11 -14 13 -14 21 0 13 23 28 19 28 -6 1 -22 1 -23 15 -3 9 10 27 19 43 19
22 0 28 -5 30 -27 3 -27 -12 -38 -21 -14 -3 8 -9 6 -20 -8 -12 -16 -18 -17
-30 -7 -10 9 -17 9 -22 3 -4 -7 -12 -7 -25 1 -15 10 -22 10 -32 0 -20 -20 -28
-14 -28 23 0 38 18 47 41 19z m1719 -24 c0 -11 -4 -20 -9 -20 -14 0 -23 18
-16 30 10 17 25 11 25 -10z m-5945 0 c8 -12 -5 -60 -16 -60 -5 0 -9 16 -9 35
0 33 12 46 25 25z m77 -1 c16 -8 22 -8 29 2 6 10 10 10 23 0 18 -15 20 -30 6
-51 -9 -13 -12 -12 -25 4 -15 19 -15 19 -29 1 -16 -22 -51 -13 -42 11 3 9 6
22 6 30 0 17 5 17 32 3z m123 1 c9 -15 -6 -60 -21 -60 -14 0 -20 51 -7 63 9
10 21 9 28 -3z m115 -2 c-1 -52 -29 -75 -49 -40 -10 16 -10 16 -11 0 0 -10 -7
-18 -15 -18 -10 0 -15 10 -15 30 0 31 17 39 38 18 9 -9 13 -7 18 5 7 20 34 23
34 5z m5570 -3 c0 -8 -4 -15 -10 -15 -5 0 -10 7 -10 15 0 8 5 15 10 15 6 0 10
-7 10 -15z m-5512 -28 c2 -19 -1 -27 -12 -27 -20 0 -26 12 -19 39 7 29 27 21
31 -12z m5728 4 c-10 -16 -36 -13 -36 3 0 17 21 27 34 16 4 -5 5 -13 2 -19z
m-4726 9 c0 -5 -2 -10 -4 -10 -3 0 -8 5 -11 10 -3 6 -1 10 4 10 6 0 11 -4 11
-10z m5380 -25 c0 -28 -24 -34 -34 -9 -8 20 1 34 20 34 8 0 14 -10 14 -25z
m-7105 6 c3 -5 1 -12 -4 -15 -5 -3 -7 -16 -4 -27 4 -16 2 -20 -8 -17 -13 4
-19 41 -11 61 4 10 20 9 27 -2z m7195 -11 c0 -15 -7 -20 -25 -20 -24 0 -34 18
-18 33 15 15 43 7 43 -13z m-5462 -7 c5 -17 -26 -29 -40 -15 -6 6 -7 15 -3 22
9 14 37 9 43 -7z m3762 3 c0 -8 -5 -18 -10 -21 -7 -4 -8 -11 -2 -18 6 -7 10
-51 11 -99 2 -87 1 -88 -23 -88 l-24 0 2 120 c1 117 1 120 24 120 12 0 22 -6
22 -14z m-758 -16 c6 0 6 -6 -2 -15 -18 -22 -40 -18 -40 6 0 15 4 19 16 15 9
-3 20 -6 26 -6z m-1992 -30 c0 -19 -5 -30 -14 -30 -18 0 -27 35 -13 49 18 18
27 12 27 -19z m2038 18 c-6 -18 -28 -21 -28 -4 0 9 7 16 16 16 9 0 14 -5 12
-12z m1667 -84 c0 -82 -1 -89 -20 -89 -18 0 -20 8 -23 78 -2 51 1 84 9 93 25
30 34 8 34 -82z m-4720 -169 l0 -230 -22 -3 -23 -3 0 175 c0 96 4 177 9 180 5
3 8 14 6 24 -2 9 -6 34 -9 55 -5 35 -3 38 17 35 22 -3 22 -4 22 -233z m-1740
198 c-10 -42 -23 -49 -20 -11 3 40 3 38 16 38 7 0 9 -10 4 -27z m3348 2 c-3
-20 -33 -31 -43 -15 -5 8 -6 18 -3 23 7 11 48 4 46 -8z m3858 -50 c-3 -65 -11
-81 -35 -72 -20 8 -23 122 -3 130 33 14 41 3 38 -58z m-6933 16 c4 -36 -3 -34
87 -19 17 2 21 -3 23 -34 l3 -38 -140 0 -141 0 0 60 0 60 35 0 c35 0 35 0 35
-45 0 -45 12 -60 24 -29 3 9 6 28 6 44 0 22 5 30 23 33 36 7 42 2 45 -32z
m6627 -33 c7 -60 5 -62 -32 -52 -21 6 -23 11 -19 56 4 47 22 77 37 60 4 -4 10
-33 14 -64z m220 51 c4 -12 4 -41 0 -65 -6 -41 -9 -44 -36 -44 l-29 0 0 65 0
65 29 0 c21 0 32 -6 36 -21z m-1315 -3 c0 -8 -4 -17 -9 -21 -12 -7 -24 12 -16
25 9 15 25 12 25 -4z m-92 -58 c-3 -57 -5 -63 -26 -66 -21 -3 -22 -1 -19 53 3
52 15 74 40 75 4 0 7 -28 5 -62z m-3418 27 c0 -8 -9 -15 -20 -15 -20 0 -26 11
-13 23 12 13 33 7 33 -8z m2864 -2 c8 -19 -8 -38 -23 -29 -16 10 -13 46 3 46
8 0 17 -8 20 -17z m-873 -96 c-1 -147 -1 -161 -11 -171 -25 -25 -42 61 -17 92
6 8 6 12 -1 12 -12 0 -11 139 1 158 18 28 28 -4 28 -91z m2725 88 c4 -8 3 -26
0 -40 -5 -18 -13 -25 -32 -25 -30 0 -41 23 -26 56 13 27 49 33 58 9z m-3767
-9 c8 -9 10 -35 5 -80 -6 -54 -10 -66 -23 -64 -12 2 -17 17 -19 58 -5 86 9
120 37 86z m942 -66 c2 -57 0 -65 -16 -65 -15 0 -19 10 -22 58 -3 37 0 64 8
73 19 23 27 5 30 -66z m-3099 53 c5 -64 3 -110 -5 -120 -6 -9 -6 -18 2 -26 12
-15 5 -27 -16 -27 -16 0 -18 76 -2 85 7 5 5 11 -4 18 -19 15 -11 87 9 87 8 0
15 -8 16 -17z m1967 3 c13 -16 14 -185 1 -206 -4 -7 -15 -10 -24 -7 -13 5 -16
24 -16 110 0 57 3 107 7 110 10 11 19 8 32 -7z m99 -64 c3 -67 1 -72 -18 -72
-22 0 -22 1 -20 80 2 60 6 73 23 67 7 -2 13 -32 15 -75z m2752 64 c0 -7 7 -19
15 -26 14 -12 14 -15 -1 -31 -12 -14 -14 -22 -6 -32 7 -8 8 -26 3 -49 -5 -22
-5 -40 1 -46 11 -11 3 -32 -12 -32 -5 0 -16 14 -24 31 -12 24 -14 41 -7 68 5
20 9 45 8 56 -2 44 4 75 13 75 6 0 10 -6 10 -14z m-5425 -87 c0 -77 -2 -84
-20 -84 -18 0 -20 8 -23 79 -2 57 1 82 10 87 26 17 33 1 33 -82z m3599 66 c8
-30 1 -45 -20 -45 -14 0 -16 5 -16 40 0 29 1 30 16 30 8 0 17 -11 20 -25z
m-1791 9 c9 -10 -4 -34 -19 -34 -8 0 -14 9 -14 20 0 19 19 27 33 14z m1052 -3
c-3 -5 -1 -12 5 -16 18 -11 11 -35 -10 -35 -11 0 -20 6 -20 14 0 22 11 46 22
46 5 0 7 -4 3 -9z m636 -52 c3 -49 -5 -69 -26 -69 -20 0 -26 101 -6 118 21 17
30 4 32 -49z m857 -44 c5 -150 -7 -285 -24 -285 -8 0 -17 6 -19 13 -10 25 -10
367 0 371 34 15 40 1 43 -99z m-3838 11 c5 -79 1 -92 -25 -82 -12 4 -15 25
-15 86 0 72 2 81 18 78 14 -3 18 -17 22 -82z m1084 53 c6 -31 -7 -69 -24 -69
-12 0 -33 68 -26 85 10 28 43 17 50 -16z m532 16 c3 -8 3 -19 -1 -25 -10 -16
-35 7 -28 26 7 18 22 18 29 -1z m1772 -8 c4 -21 -16 -49 -29 -41 -5 3 -9 19
-9 35 0 24 4 30 17 27 10 -2 19 -11 21 -21z m1432 -63 c0 -76 -2 -85 -17 -82
-15 3 -19 16 -21 72 -3 78 1 96 23 96 12 0 15 -15 15 -86z m205 -56 c10 -196
8 -203 -34 -203 l-34 0 2 164 c1 91 5 169 7 173 3 4 16 8 29 8 23 0 23 -2 30
-142z m-3285 -18 l0 -150 -30 0 -30 0 0 143 c0 79 3 147 7 150 3 4 17 7 30 7
l23 0 0 -150z m936 114 c1 -16 3 -35 5 -43 2 -8 -3 -16 -12 -18 -13 -3 -18 5
-21 36 -2 22 -2 45 0 51 7 21 27 3 28 -26z m1478 30 c30 -12 12 -44 -25 -44
-10 0 -12 33 -2 43 8 8 8 8 27 1z m-2846 -41 c4 -16 -22 -27 -43 -19 -22 8 -6
38 18 34 11 -2 22 -9 25 -15z m187 9 c6 -4 11 -26 12 -49 0 -34 -3 -43 -17
-43 -25 0 -31 10 -19 32 7 14 7 23 -1 33 -19 23 2 44 25 27z m1592 -259 c-2
-231 -3 -238 -22 -238 -19 0 -20 7 -20 220 0 121 3 228 7 238 4 9 14 17 22 17
12 0 14 -35 13 -237z m303 213 c0 -20 -19 -31 -32 -18 -6 6 -7 15 -4 21 10 16
36 13 36 -3z m-2093 -30 c-9 -23 -37 -20 -37 3 0 21 20 33 34 20 5 -4 6 -15 3
-23z m2871 2 c-3 -33 -15 -43 -35 -30 -19 12 -4 62 19 62 16 0 19 -6 16 -32z
m-2548 -2 c0 -23 -22 -41 -34 -29 -3 4 -6 17 -6 30 0 16 6 23 20 23 14 0 20
-7 20 -24z m1150 14 c0 -5 -4 -10 -10 -10 -5 0 -10 5 -10 10 0 6 5 10 10 10 6
0 10 -4 10 -10z m-310 -41 c0 -5 -7 -9 -15 -9 -8 0 -15 7 -15 15 0 9 6 12 15
9 8 -4 15 -10 15 -15z m310 11 c0 -5 -7 -10 -15 -10 -8 0 -15 5 -15 10 0 6 7
10 15 10 8 0 15 -4 15 -10z m418 -32 c-2 -30 -8 -43 -18 -43 -10 0 -16 13 -18
43 -3 37 -1 42 18 42 19 0 21 -5 18 -42z m200 9 c2 -16 -1 -27 -9 -27 -17 0
-38 31 -32 48 9 23 38 8 41 -21z m-2090 1 c8 -8 12 -45 12 -102 0 -114 -6
-136 -35 -136 -22 0 -22 2 -18 116 4 136 10 153 41 122z m2770 -86 l3 -92 -26
0 c-25 0 -25 0 -25 88 0 92 4 105 30 100 12 -3 16 -22 18 -96z m-338 72 c0
-17 -22 -14 -28 4 -2 7 3 12 12 12 9 0 16 -7 16 -16z m-2112 -51 c-2 -31 -7
-39 -25 -41 -21 -3 -23 1 -23 37 0 37 2 41 26 41 23 0 25 -3 22 -37z m327 -28
c0 -29 -4 -41 -16 -43 -12 -2 -18 6 -21 31 -5 45 0 59 21 55 12 -2 16 -14 16
-43z m1789 4 c7 -33 -19 -63 -34 -38 -6 8 -5 18 0 23 6 6 5 15 -2 24 -9 10 -8
16 3 22 17 11 24 4 33 -31z m-2324 -69 c0 -81 -3 -100 -15 -100 -24 0 -33 31
-34 118 0 81 0 82 24 82 25 0 25 0 25 -100z m1264 43 c-9 -37 -14 -44 -25 -38
-10 7 -12 48 -2 58 17 18 33 6 27 -20z m-726 -87 c0 -61 -20 -103 -37 -76 -6
8 -7 34 -4 57 4 31 2 43 -7 43 -10 0 -10 3 0 15 7 8 20 15 30 15 14 0 17 -9
18 -54z m728 5 c-8 -13 -36 -15 -36 -3 0 4 5 13 12 20 14 14 34 0 24 -17z
m1054 -5 c0 -20 -19 -31 -32 -18 -6 6 -7 15 -4 21 10 16 36 13 36 -3z"/>
<path d="M4240 7630 c0 -5 22 -10 49 -10 28 0 53 5 56 10 4 6 -15 10 -49 10
-31 0 -56 -4 -56 -10z"/>
<path d="M4295 6991 c-28 -6 -30 -9 -33 -59 l-3 -52 51 0 c57 0 115 22 125 48
15 39 -71 78 -140 63z"/>
<path d="M10913 6864 c-23 -23 -25 -31 -21 -85 6 -86 34 -104 115 -73 l43 17
0 74 c0 70 -1 74 -26 83 -44 17 -83 12 -111 -16z"/>
<path d="M5345 6860 c-14 -15 -15 -23 -6 -34 27 -32 113 -26 119 8 9 45 -77
65 -113 26z"/>
<path d="M5327 6653 c-13 -12 -7 -41 9 -47 32 -12 151 -6 163 8 18 22 13 23
-130 41 -20 3 -39 2 -42 -2z"/>
<path d="M5945 6894 c-5 -1 -22 -5 -37 -8 -21 -5 -28 -12 -28 -31 0 -24 2 -25
68 -25 79 0 96 7 77 33 -13 18 -61 36 -80 31z"/>
<path d="M4807 6763 c-13 -13 -7 -51 10 -57 9 -4 38 -1 65 5 40 11 48 17 48
36 0 21 -4 23 -58 23 -32 0 -62 -3 -65 -7z"/>
<path d="M7490 6861 c-5 -11 -10 -42 -10 -69 0 -65 27 -102 75 -102 48 0 75
37 75 105 0 66 -19 85 -83 85 -36 0 -49 -4 -57 -19z"/>
<path d="M9438 6864 c-26 -13 -28 -19 -28 -75 0 -85 10 -99 70 -99 67 0 87 30
82 122 -4 57 -66 84 -124 52z"/>
<path d="M7036 11235 c-7 -20 14 -65 30 -65 16 0 29 43 20 65 -7 19 -42 19
-50 0z"/>
<path d="M9350 11110 c0 -13 7 -20 20 -20 13 0 20 7 20 20 0 13 -7 20 -20 20
-13 0 -20 -7 -20 -20z"/>
<path d="M6660 10960 c0 -13 5 -20 13 -17 6 2 12 10 12 17 0 7 -6 15 -12 18
-8 2 -13 -5 -13 -18z"/>
<path d="M5445 10941 c-8 -15 6 -411 15 -411 17 0 20 -34 5 -50 -13 -14 -15
-47 -13 -211 3 -175 5 -194 21 -197 16 -3 17 18 19 312 5 600 6 561 -19 564
-11 2 -24 -2 -28 -7z"/>
<path d="M7384 10865 c-8 -21 4 -35 32 -35 19 0 24 5 24 25 0 20 -5 25 -25 25
-14 0 -28 -7 -31 -15z"/>
<path d="M6446 10841 c-8 -12 21 -34 34 -26 17 11 11 35 -9 35 -11 0 -22 -4
-25 -9z"/>
<path d="M7729 10793 c-3 -27 3 -269 7 -272 13 -14 19 25 21 145 2 111 -1 134
-13 134 -7 0 -14 -3 -15 -7z"/>
<path d="M6022 10460 c-1 -272 4 -328 24 -308 2 3 5 140 7 306 4 283 3 302
-13 302 -17 0 -18 -21 -18 -300z"/>
<path d="M6238 10633 c-3 -4 -4 -33 -4 -63 1 -42 5 -55 16 -55 12 0 15 13 15
59 0 36 -5 61 -12 63 -6 2 -13 0 -15 -4z"/>
<path d="M5563 10544 c-8 -20 9 -36 30 -28 21 8 22 30 1 38 -22 8 -24 8 -31
-10z"/>
<path d="M4512 10528 c6 -18 28 -21 28 -4 0 9 -7 16 -16 16 -9 0 -14 -5 -12
-12z"/>
<path d="M7006 10523 c-10 -26 4 -125 17 -120 7 2 13 33 14 70 2 52 0 67 -11
67 -8 0 -17 -8 -20 -17z"/>
<path d="M7418 10475 c3 -50 7 -65 19 -65 11 0 14 6 9 23 -3 12 -6 41 -6 65 0
27 -4 42 -12 42 -10 0 -12 -18 -10 -65z"/>
<path d="M8450 10376 c0 -61 3 -76 15 -76 12 0 15 14 15 65 0 36 0 68 1 73 0
4 -7 8 -15 10 -13 3 -16 -9 -16 -72z"/>
<path d="M7004 10347 c-9 -25 0 -51 19 -55 12 -3 17 3 17 21 0 31 -27 57 -36
34z"/>
<path d="M11477 10283 c-16 -26 3 -153 23 -153 15 0 41 78 38 116 -3 34 -7 39
-30 42 -14 2 -28 0 -31 -5z"/>
<path d="M7012 10268 c-7 -7 -12 -20 -12 -31 0 -24 33 -19 38 7 5 24 -11 39
-26 24z"/>
<path d="M4190 10169 c-13 -8 -13 -10 0 -19 21 -14 30 -12 30 4 0 20 -13 27
-30 15z"/>
<path d="M5133 10154 c-7 -20 11 -38 31 -31 23 9 20 34 -5 40 -13 3 -22 0 -26
-9z"/>
<path d="M9954 10126 c-7 -19 3 -36 22 -36 10 0 14 8 12 22 -4 26 -26 36 -34
14z"/>
<path d="M10508 10119 c5 -11 11 -20 15 -20 4 1 12 1 17 1 6 0 10 9 10 20 0
15 -7 20 -25 20 -20 0 -23 -3 -17 -21z"/>
<path d="M4290 10115 c-10 -12 -10 -18 0 -30 15 -18 30 -11 30 15 0 26 -15 33
-30 15z"/>
<path d="M11044 10117 c-9 -25 0 -62 16 -62 10 0 15 10 15 34 0 36 -21 54 -31
28z"/>
<path d="M4542 10058 c3 -53 21 -75 33 -39 9 30 -5 91 -22 91 -11 0 -13 -12
-11 -52z"/>
<path d="M10527 10014 c-8 -8 3 -34 14 -34 5 0 9 9 9 20 0 19 -11 26 -23 14z"/>
<path d="M3786 9964 c-17 -17 -19 -27 -10 -61 5 -18 14 -23 39 -23 34 0 45 13
45 54 0 43 -44 61 -74 30z"/>
<path d="M4303 9934 c-5 -14 11 -33 28 -34 10 0 20 31 13 41 -9 15 -34 10 -41
-7z"/>
<path d="M3353 9923 c-7 -2 -13 -22 -13 -43 0 -31 4 -39 22 -44 31 -8 40 5 36
50 -3 38 -17 49 -45 37z"/>
<path d="M10500 9915 c0 -12 7 -15 25 -13 14 2 26 8 26 13 0 6 -12 11 -26 13
-18 2 -25 -1 -25 -13z"/>
<path d="M11594 9746 c-11 -28 1 -51 27 -54 29 -3 41 14 32 47 -6 25 -50 29
-59 7z"/>
<path d="M3847 9723 c-14 -13 -6 -33 13 -33 13 0 20 7 20 20 0 19 -20 27 -33
13z"/>
<path d="M4205 9670 c3 -5 15 -10 26 -10 10 0 19 5 19 10 0 6 -12 10 -26 10
-14 0 -23 -4 -19 -10z"/>
<path d="M4330 9666 c0 -8 4 -17 8 -20 13 -8 35 11 28 23 -10 16 -36 14 -36
-3z"/>
<path d="M3440 9430 c0 -23 31 -27 49 -7 14 17 4 27 -26 27 -16 0 -23 -6 -23
-20z"/>
<path d="M11880 9435 c-15 -18 2 -45 30 -45 23 0 34 28 19 46 -15 18 -33 18
-49 -1z"/>
<path d="M11667 9303 c-13 -12 -7 -33 8 -33 8 0 15 9 15 20 0 20 -11 26 -23
13z"/>
<path d="M11760 9241 c0 -6 4 -12 9 -15 5 -3 131 -9 281 -12 262 -6 272 -6
268 12 -3 18 -19 19 -281 22 -171 1 -277 -1 -277 -7z"/>
<path d="M3025 9230 c-15 -24 13 -30 151 -30 137 0 144 1 144 20 0 19 -7 20
-144 20 -86 0 -147 -4 -151 -10z"/>
<path d="M3323 9169 c-14 -14 -6 -39 12 -39 15 0 24 19 17 38 -5 15 -15 15
-29 1z"/>
<path d="M3394 9165 c-4 -9 -2 -21 4 -27 15 -15 44 -1 40 19 -4 23 -36 29 -44
8z"/>
<path d="M3510 9172 c-34 -5 -49 -20 -30 -32 16 -11 241 -13 278 -4 20 6 32
33 15 34 -54 4 -244 5 -263 2z"/>
<path d="M2742 9068 c-16 -16 -15 -35 2 -45 8 -4 87 -7 176 -5 146 3 161 5
158 20 -3 15 -20 17 -134 18 -75 1 -140 6 -152 13 -26 14 -35 14 -50 -1z"/>
<path d="M12284 9045 c-4 -9 -5 -17 -3 -19 2 -2 77 -6 167 -7 160 -4 162 -4
162 18 0 21 -3 21 -160 22 -137 1 -161 -1 -166 -14z"/>
<path d="M12662 8908 c-18 -18 -15 -25 14 -32 34 -9 52 7 34 29 -15 18 -32 19
-48 3z"/>
<path d="M2924 8725 c-4 -9 -2 -21 4 -27 15 -15 44 -1 40 19 -4 23 -36 29 -44
8z"/>
<path d="M3014 8719 c-9 -16 10 -31 30 -23 13 5 14 9 5 20 -14 17 -25 18 -35
3z"/>
<path d="M13100 8599 c0 -5 5 -7 10 -4 6 3 10 8 10 11 0 2 -4 4 -10 4 -5 0
-10 -5 -10 -11z"/>
<path d="M12463 8484 c-7 -18 14 -35 37 -31 8 1 16 12 18 25 3 18 -1 22 -23
22 -14 0 -28 -7 -32 -16z"/>
<path d="M12285 8220 c-14 -43 44 -67 68 -28 8 12 7 21 -2 32 -19 23 -58 20
-66 -4z"/>
<path d="M12838 8079 c-10 -5 -18 -19 -18 -29 0 -17 7 -20 40 -20 36 0 40 3
40 24 0 33 -29 45 -62 25z"/>
<path d="M12707 7654 c-14 -15 -7 -53 12 -59 31 -10 52 5 49 34 -2 19 -9 27
-28 29 -14 2 -29 0 -33 -4z"/>
<path d="M12500 7481 c0 -20 40 -34 61 -20 22 13 1 39 -31 39 -23 0 -30 -5
-30 -19z"/>
<path d="M2794 7376 c-12 -31 4 -47 43 -44 33 3 38 6 38 28 0 22 -5 25 -38 28
-26 2 -39 -1 -43 -12z"/>
<path d="M11923 7028 c2 -7 12 -13 22 -13 10 0 20 6 23 13 2 7 -6 12 -23 12
-17 0 -25 -5 -22 -12z"/>
<path d="M3190 6971 c0 -11 4 -22 9 -25 12 -8 34 21 26 34 -11 17 -35 11 -35
-9z"/>
<path d="M11877 6844 c-12 -13 -8 -41 10 -55 18 -15 120 -14 139 2 6 5 27 8
45 7 28 -3 34 0 34 17 0 22 -2 22 -140 31 -44 3 -84 2 -88 -2z"/>
<path d="M12590 6836 c0 -8 5 -18 10 -21 13 -8 42 14 34 26 -9 15 -44 10 -44
-5z"/>
<path d="M3052 6659 c-13 -5 -22 -15 -20 -21 6 -18 58 -23 58 -6 0 26 -14 36
-38 27z"/>
<path d="M2774 6645 c-15 -37 1 -43 98 -38 98 6 115 12 105 37 -9 23 -195 23
-203 1z"/>
<path d="M11687 6653 c-19 -19 16 -39 47 -27 13 5 14 9 5 20 -12 15 -41 19
-52 7z"/>
<path d="M11803 6628 c2 -7 10 -13 17 -13 7 0 15 6 18 13 2 7 -5 12 -18 12
-13 0 -20 -5 -17 -12z"/>
<path d="M11670 6525 c0 -18 5 -25 19 -25 24 0 33 13 25 34 -10 27 -44 20 -44
-9z"/>
<path d="M3434 6515 c-4 -10 0 -24 10 -33 16 -16 18 -16 32 3 18 24 13 39 -14
43 -14 2 -25 -3 -28 -13z"/>
<path d="M4194 6136 c-3 -8 -2 -22 3 -30 8 -14 12 -14 28 -3 11 9 16 20 12 31
-8 20 -36 21 -43 2z"/>
<path d="M3792 6038 c-15 -15 -16 -60 0 -76 21 -21 57 -14 64 12 11 44 1 71
-26 74 -14 2 -31 -3 -38 -10z"/>
<path d="M4081 6036 c-12 -14 -5 -66 8 -66 14 0 29 16 35 37 9 28 -25 51 -43
29z"/>
<path d="M4397 6014 c-4 -4 -7 -16 -7 -26 0 -14 6 -19 23 -16 14 2 22 10 22
23 0 20 -25 32 -38 19z"/>
<path d="M10626 6004 c-7 -19 10 -44 30 -44 9 0 14 11 14 30 0 23 -5 30 -19
30 -10 0 -22 -7 -25 -16z"/>
<path d="M10521 5997 c-13 -16 -5 -27 21 -27 20 0 21 1 12 24 -7 20 -18 20
-33 3z"/>
<path d="M9670 5928 c-1 -2 -3 -58 -5 -126 -4 -105 -2 -124 11 -129 9 -3 20 0
25 8 10 15 10 107 0 124 -3 6 -4 36 -2 68 2 47 0 57 -13 57 -9 0 -16 -1 -16
-2z"/>
<path d="M9956 5834 c-9 -23 -7 -97 3 -113 17 -27 31 1 31 65 0 48 -3 64 -14
64 -8 0 -17 -7 -20 -16z"/>
<path d="M5226 5788 c-18 -71 5 -136 39 -108 17 14 22 120 6 120 -5 0 -16 3
-24 6 -9 3 -17 -3 -21 -18z"/>
<path d="M5335 5800 c-3 -6 1 -13 10 -16 19 -8 30 0 20 15 -8 14 -22 14 -30 1z"/>
<path d="M6346 5743 c-3 -10 -4 -103 -3 -208 2 -161 4 -190 17 -190 13 0 15
31 18 208 2 176 0 207 -12 207 -8 0 -17 -8 -20 -17z"/>
<path d="M5342 5718 c-6 -8 -11 -196 -13 -503 l-4 -490 21 -3 c38 -5 46 19 40
130 -4 57 -9 277 -12 491 -3 213 -9 387 -13 387 -5 0 -13 -6 -19 -12z"/>
<path d="M7400 5599 c0 -130 0 -130 23 -127 22 3 22 6 20 118 -2 63 -3 121 -3
128 0 6 -9 12 -20 12 -19 0 -20 -7 -20 -131z"/>
<path d="M8462 5718 c-17 -17 -17 -331 0 -326 7 3 16 18 20 34 9 34 8 304 -2
304 -3 0 -11 -5 -18 -12z"/>
<path d="M4317 5663 c-4 -3 -7 -53 -7 -109 0 -96 1 -103 21 -109 12 -4 25 -3
29 2 7 7 14 145 11 206 -1 17 -40 25 -54 10z"/>
<path d="M5461 5656 c-8 -9 -11 -70 -9 -197 3 -166 5 -184 21 -187 16 -3 17
11 17 197 0 111 -4 201 -9 201 -5 0 -14 -6 -20 -14z"/>
<path d="M10948 5623 c-2 -15 -1 -43 1 -60 3 -27 8 -33 27 -33 27 0 37 26 32
81 -2 28 -7 35 -30 37 -23 3 -27 -1 -30 -25z"/>
<path d="M10184 5525 c-4 -9 -2 -21 4 -27 15 -15 44 -1 40 19 -4 23 -36 29
-44 8z"/>
<path d="M6020 5475 c-10 -12 -10 -19 -2 -27 15 -15 16 -180 1 -266 -11 -59
-10 -67 7 -79 15 -11 20 -11 33 1 12 12 12 22 3 53 -6 21 -11 100 -10 176 0
139 -7 172 -32 142z"/>
<path d="M6677 5484 c-4 -4 -7 -58 -7 -121 0 -93 3 -113 15 -113 21 0 26 32
23 139 -3 87 -12 114 -31 95z"/>
<path d="M8340 5391 c0 -44 -3 -87 -6 -96 -5 -13 -2 -16 17 -13 23 3 24 7 27
96 3 87 2 92 -18 92 -18 0 -20 -6 -20 -79z"/>
<path d="M9660 5431 c0 -12 6 -21 16 -21 9 0 14 7 12 17 -5 25 -28 28 -28 4z"/>
<path d="M7210 5329 c0 -76 3 -100 13 -97 8 3 13 35 15 101 2 82 0 97 -13 97
-12 0 -15 -17 -15 -101z"/>
<path d="M5132 5408 c-5 -7 -12 -71 -13 -142 -3 -110 -2 -130 12 -139 9 -6 24
-7 33 -4 14 5 16 24 16 126 0 147 -15 198 -48 159z"/>
<path d="M10420 5400 c0 -5 5 -10 10 -10 6 0 10 5 10 10 0 6 -4 10 -10 10 -5
0 -10 -4 -10 -10z"/>
<path d="M7417 5389 c-14 -8 -17 -25 -17 -98 0 -66 4 -90 14 -94 26 -10 36 16
36 98 0 90 -7 108 -33 94z"/>
<path d="M7842 5372 c-17 -11 -12 -364 5 -369 7 -3 15 4 20 14 10 22 5 363 -5
363 -4 0 -13 -4 -20 -8z"/>
<path d="M8554 5326 c-3 -7 -4 -38 -2 -67 2 -40 7 -54 18 -54 12 0 16 15 18
68 2 56 0 67 -13 67 -9 0 -18 -6 -21 -14z"/>
<path d="M10421 5321 c-10 -7 -14 -49 -15 -187 l-1 -179 25 0 c24 0 25 3 28
75 4 91 -7 300 -16 300 -4 0 -13 -4 -21 -9z"/>
<path d="M6560 5299 c0 -25 33 -22 38 4 2 12 -3 17 -17 17 -15 0 -21 -6 -21
-21z"/>
<path d="M8450 5299 c0 -24 23 -21 28 4 2 10 -3 17 -12 17 -10 0 -16 -9 -16
-21z"/>
<path d="M9347 5313 c-10 -9 -8 -155 1 -171 5 -7 16 -10 25 -6 24 9 25 169 1
178 -19 7 -19 7 -27 -1z"/>
<path d="M8450 5229 c0 -24 23 -21 28 4 2 10 -3 17 -12 17 -10 0 -16 -9 -16
-21z"/>
<path d="M7200 5160 c0 -11 7 -20 15 -20 8 0 15 9 15 20 0 11 -7 20 -15 20 -8
0 -15 -9 -15 -20z"/>
<path d="M7730 5065 c0 -8 7 -15 15 -15 8 0 15 7 15 15 0 8 -7 15 -15 15 -8 0
-15 -7 -15 -15z"/>
<path d="M9350 5063 c0 -10 -3 -34 -5 -53 -7 -41 5 -63 28 -54 13 5 17 19 17
65 0 52 -2 59 -20 59 -12 0 -20 -7 -20 -17z"/>
<path d="M8235 5028 c-3 -7 -4 -128 -3 -268 3 -247 4 -255 23 -255 19 0 20 7
20 265 0 244 -1 265 -18 268 -9 2 -19 -3 -22 -10z"/>
<path d="M5567 4993 c-10 -9 -8 -45 1 -61 10 -15 38 -7 46 13 13 35 -23 72
-47 48z"/>
<path d="M6660 4946 c0 -24 18 -28 30 -6 9 17 8 20 -10 20 -11 0 -20 -6 -20
-14z"/>
<path d="M9767 4943 c-4 -3 -7 -19 -7 -35 0 -21 5 -28 20 -28 26 0 35 22 20
49 -11 22 -22 26 -33 14z"/>
<path d="M7017 4904 c-9 -9 -9 -67 -1 -88 9 -24 33 -19 40 8 13 54 -12 107
-39 80z"/>
<path d="M6900 4630 c0 -11 5 -20 10 -20 6 0 10 9 10 20 0 11 -4 20 -10 20 -5
0 -10 -9 -10 -20z"/>
<path d="M6889 4526 c-7 -14 -9 -36 -5 -51 5 -21 12 -26 34 -23 23 2 28 8 30
36 6 57 -38 85 -59 38z"/>
</g>
</svg>
